<svg width="168" height="24" viewBox="0 0 168 24" fill="none" xmlns="http://www.w3.org/2000/svg">
<path d="M167.616 11.6578V22.3618H166.152V16.6498H164.256V15.4498H166.152V11.6578H167.616ZM159.12 19.9378V12.5698H164.088V13.7698H160.608V15.5458H163.704V16.7218H160.608V18.7138C162.084 18.7138 163.272 18.6658 164.592 18.4498L164.736 19.6498C163.176 19.8898 161.784 19.9378 159.96 19.9378H159.12Z" fill="#BAE0FF"/>
<path d="M157.652 11.6578V19.6498H156.236V11.6578H157.652ZM148.364 17.1298C149.816 16.4338 150.392 15.0418 150.404 13.7698V12.3778H151.844V13.7698C151.844 15.0058 152.384 16.2298 153.74 16.8658L152.924 18.0178C152.06 17.6098 151.484 16.9378 151.136 16.1218C150.764 17.0458 150.116 17.8258 149.18 18.2578L148.364 17.1298ZM150.428 22.1458V18.7138H151.916V20.9458H157.916V22.1458H150.428ZM152.78 15.3298V14.1058H154.076V11.8258H155.492V19.3378H154.076V15.3298H152.78Z" fill="#BAE0FF"/>
<path d="M139.764 14.5858C139.764 16.2058 140.628 18.0778 142.38 18.8818L141.54 20.0578C140.352 19.5178 139.512 18.4258 139.044 17.1538C138.564 18.5578 137.688 19.7458 136.452 20.3218L135.588 19.1458C137.364 18.3178 138.264 16.3378 138.276 14.5858V13.9138H136.02V12.6898H141.924V13.9138H139.764V14.5858ZM142.74 22.3378V11.6578H144.252V15.7378H145.812V16.9858H144.252V22.3378H142.74Z" fill="#BAE0FF"/>
<path d="M134.648 11.6578V22.3618H133.16V11.6578H134.648ZM126.272 19.8658V15.4978H129.8V13.7698H126.272V12.5698H131.336V16.6738H127.808V18.6418C129.44 18.6298 130.82 18.5458 132.392 18.2818L132.512 19.4818C130.772 19.7938 129.188 19.8658 127.232 19.8658H126.272Z" fill="#BAE0FF"/>
<path d="M121.542 12.4498V13.1218C121.542 13.8538 121.542 14.9098 121.302 16.2418L119.838 16.0978C120.03 15.0778 120.078 14.3098 120.09 13.6738H116.07V12.4498H121.542ZM115.422 17.0098C116.022 17.0098 116.706 17.0098 117.414 16.9978V14.8978H118.902V16.9498C119.958 16.9018 121.05 16.8178 122.046 16.6738L122.142 17.7538C119.91 18.1618 117.414 18.1978 115.566 18.2098L115.422 17.0098ZM117.006 22.1458V18.9298H118.494V20.9458H124.494V22.1458H117.006ZM122.622 19.6498V11.6578H124.158V14.9218H125.454V16.1698H124.158V19.6498H122.622Z" fill="#BAE0FF"/>
<path d="M115.275 13.0738V14.2978H113.907V15.3778H115.275V16.6258H113.907V17.9698H112.395V11.6578H113.907V13.0738H115.275ZM105.507 14.8498C105.507 13.3378 106.767 12.2458 108.435 12.2578C110.091 12.2458 111.339 13.3378 111.339 14.8498C111.339 16.3858 110.091 17.4658 108.435 17.4658C106.767 17.4658 105.507 16.3858 105.507 14.8498ZM106.731 19.6018V18.3778H113.907V22.3378H112.395V19.6018H106.731ZM106.971 14.8498C106.971 15.7018 107.595 16.2058 108.435 16.1938C109.263 16.2058 109.887 15.7018 109.899 14.8498C109.887 14.0218 109.263 13.5298 108.435 13.5298C107.595 13.5298 106.971 14.0218 106.971 14.8498Z" fill="#BAE0FF"/>
<path d="M104.543 11.6578V22.3378H103.127V11.6578H104.543ZM95.3994 16.2898C95.3994 13.9018 96.3114 12.4258 97.7274 12.4258C98.6154 12.4258 99.3114 13.0138 99.7074 14.0338H100.967V11.8258H102.359V21.8338H100.967V18.5458H99.7074C99.3114 19.5778 98.6154 20.1658 97.7274 20.1538C96.3114 20.1658 95.3994 18.6898 95.3994 16.2898ZM96.7674 16.2898C96.7554 17.9338 97.0914 18.7378 97.7274 18.7378C98.3394 18.7378 98.7114 17.9338 98.7114 16.2898C98.7114 14.6578 98.3394 13.8418 97.7274 13.8418C97.0914 13.8418 96.7554 14.6578 96.7674 16.2898ZM100.007 15.2338C100.055 15.5578 100.079 15.9178 100.079 16.2898C100.079 16.6618 100.055 16.9978 100.007 17.3218H100.967V15.2338H100.007Z" fill="#BAE0FF"/>
<path d="M4.50659 0.000244141C6.25169 0.000244141 7.66845 1.41743 7.66845 3.16306C7.66845 4.90868 6.25169 6.32587 4.50659 6.32587C2.76149 6.32587 1.34473 4.90868 1.34473 3.16306C1.34473 1.41743 2.76149 0.000244141 4.50659 0.000244141Z" fill="white"/>
<path d="M4.50365 12.9075C6.2229 12.9075 7.80512 13.7765 8.74877 15.1911C8.91164 14.7256 9.0073 14.229 9.0073 13.7092V12.8455C9.0073 10.3576 6.99074 8.34045 4.50365 8.34045C2.01656 8.34045 0 10.3576 0 12.8455V13.7092C0 14.229 0.0956573 14.7256 0.258533 15.1911C1.20218 13.7765 2.7844 12.9075 4.50365 12.9075Z" fill="white"/>
<path d="M4.50365 18.8209C2.7844 18.8209 1.20218 17.952 0.258533 16.5374C0.0956573 17.0029 0 17.4994 0 18.0192V18.883C0 21.3708 2.01656 23.388 4.50365 23.388C6.99074 23.388 9.0073 21.3708 9.0073 18.883V18.0192C9.0073 17.4994 8.91164 17.0029 8.74877 16.5374C7.80512 17.952 6.2229 18.8209 4.50365 18.8209Z" fill="white"/>
<path d="M4.50373 17.6039C5.81449 17.6039 7.0296 16.9445 7.74832 15.8635C7.0296 14.7825 5.81708 14.1256 4.50373 14.1256C3.19038 14.1256 1.97786 14.7851 1.26172 15.8635C1.98044 16.9445 3.19296 17.6039 4.50373 17.6039Z" fill="white"/>
<path d="M14.926 22.3624V7.47432H17.3719V22.3624H14.926ZM27.2746 22.3624V16.471C27.2746 15.7904 27.0549 15.2303 26.6153 14.7908C26.1899 14.3512 25.637 14.1314 24.9564 14.1314C24.5026 14.1314 24.0985 14.2307 23.744 14.4292C23.3896 14.6277 23.1131 14.9042 22.9146 15.2587C22.716 15.6132 22.6168 16.0173 22.6168 16.471L21.7022 15.9605C21.7022 15.1807 21.8724 14.493 22.2127 13.8975C22.553 13.2878 23.0209 12.8128 23.6164 12.4725C24.2261 12.118 24.9067 11.9408 25.6582 11.9408C26.4239 11.9408 27.1045 12.1393 27.7 12.5363C28.2955 12.9191 28.7635 13.4225 29.1038 14.0464C29.4441 14.6561 29.6142 15.2941 29.6142 15.9605V22.3624H27.2746ZM20.2772 22.3624V12.1534H22.6168V22.3624H20.2772ZM33.4196 22.3624V7.8997H35.7592V22.3624H33.4196ZM30.9737 14.2803V12.1534H38.2051V14.2803H30.9737ZM44.2934 22.5751C43.3009 22.5751 42.4005 22.3412 41.5923 21.8732C40.7841 21.3912 40.1389 20.746 39.6569 19.9378C39.1889 19.1296 38.955 18.2292 38.955 17.2367C38.955 16.2441 39.1889 15.3508 39.6569 14.5568C40.1389 13.7628 40.7841 13.1318 41.5923 12.6639C42.4005 12.1818 43.3009 11.9408 44.2934 11.9408C45.3002 11.9408 46.2076 12.1747 47.0158 12.6426C47.824 13.1105 48.4621 13.7486 48.93 14.5568C49.4121 15.3508 49.6532 16.2441 49.6532 17.2367C49.6532 18.2292 49.4121 19.1296 48.93 19.9378C48.4621 20.746 47.824 21.3912 47.0158 21.8732C46.2076 22.3412 45.3002 22.5751 44.2934 22.5751ZM44.2934 20.3206C44.8748 20.3206 45.3852 20.193 45.8248 19.9378C46.2785 19.6684 46.6259 19.2997 46.867 18.8318C47.1222 18.3639 47.2498 17.8322 47.2498 17.2367C47.2498 16.6411 47.1222 16.1165 46.867 15.6628C46.6117 15.209 46.2643 14.8546 45.8248 14.5993C45.3852 14.3299 44.8748 14.1952 44.2934 14.1952C43.7263 14.1952 43.2158 14.3299 42.7621 14.5993C42.3225 14.8546 41.9751 15.209 41.7199 15.6628C41.4789 16.1165 41.3584 16.6411 41.3584 17.2367C41.3584 17.8322 41.4789 18.3639 41.7199 18.8318C41.9751 19.2997 42.3225 19.6684 42.7621 19.9378C43.2158 20.193 43.7263 20.3206 44.2934 20.3206ZM51.9178 22.3624V7.47432H54.3637V22.3624H51.9178ZM53.598 22.3624V20.1292H61.3824V22.3624H53.598ZM63.3137 22.3624V12.1534H65.6532V22.3624H63.3137ZM64.4834 10.2818C64.0864 10.2818 63.7532 10.1471 63.4838 9.87769C63.2286 9.60829 63.101 9.27508 63.101 8.87806C63.101 8.48104 63.2286 8.14783 63.4838 7.87843C63.7532 7.60903 64.0864 7.47432 64.4834 7.47432C64.8946 7.47432 65.2278 7.60903 65.4831 7.87843C65.7383 8.14783 65.8659 8.48104 65.8659 8.87806C65.8659 9.27508 65.7383 9.60829 65.4831 9.87769C65.2278 10.1471 64.8946 10.2818 64.4834 10.2818ZM75.2746 22.3624V16.471C75.2746 15.7904 75.0549 15.2303 74.6153 14.7908C74.1899 14.3512 73.637 14.1314 72.9564 14.1314C72.5026 14.1314 72.0985 14.2307 71.744 14.4292C71.3896 14.6277 71.1131 14.9042 70.9146 15.2587C70.7161 15.6132 70.6168 16.0173 70.6168 16.471L69.7022 15.9605C69.7022 15.1807 69.8724 14.493 70.2127 13.8975C70.553 13.2878 71.0209 12.8128 71.6164 12.4725C72.2261 12.118 72.9067 11.9408 73.6582 11.9408C74.4239 11.9408 75.1045 12.1393 75.7 12.5363C76.2955 12.9191 76.7635 13.4225 77.1038 14.0464C77.4441 14.6561 77.6142 15.2941 77.6142 15.9605V22.3624H75.2746ZM68.2772 22.3624V12.1534H70.6168V22.3624H68.2772ZM86.4786 22.3624L82.1611 17.1516L86.4573 12.1534H89.2435L84.3092 17.7684L84.4155 16.4285L89.4562 22.3624H86.4786ZM79.9917 22.3624V7.04895H82.3312V22.3624H79.9917Z" fill="white"/>
</svg>
