<svg width="24" height="24" viewBox="0 0 24 24" fill="none" xmlns="http://www.w3.org/2000/svg">
<rect x="0.5" y="0.5" width="23" height="23" rx="3.5" fill="white"/>
<rect x="0.5" y="0.5" width="23" height="23" rx="3.5" stroke="#CDCDD1"/>
<path d="M15.8459 10.3333C16.2836 10.3333 16.51 9.8107 16.2107 9.49136L12.7295 5.77817C12.3345 5.35676 11.6655 5.35676 11.2705 5.77817L7.78935 9.49136C7.48997 9.8107 7.7164 10.3333 8.15412 10.3333H15.8459ZM15.8459 13.6667C16.2836 13.6667 16.51 14.1893 16.2107 14.5086L12.7295 18.2218C12.3345 18.6432 11.6655 18.6432 11.2705 18.2218L7.78935 14.5086C7.48997 14.1893 7.7164 13.6667 8.15412 13.6667H15.8459Z" fill="#49494D"/>
</svg>
