<svg width="12" height="12" viewBox="0 0 12 12" fill="none" xmlns="http://www.w3.org/2000/svg">
<path d="M3.95898 2.45898C3.76379 2.65418 3.76392 2.97074 3.95898 3.16602L7.08301 6.29004L3.95898 9.41406L3.89453 9.49219C3.76651 9.68625 3.78818 9.95029 3.95898 10.1211C4.12981 10.2918 4.39387 10.3136 4.58789 10.1855L4.66602 10.1211L8.14355 6.64355C8.21664 6.57044 8.26193 6.48013 8.28027 6.38574C8.29256 6.32254 8.29253 6.25754 8.28027 6.19434C8.26804 6.13125 8.24372 6.07013 8.20703 6.01465L8.14355 5.93652L4.66602 2.45898C4.47074 2.26392 4.15418 2.2638 3.95898 2.45898Z" fill="#0C75FF"/>
</svg>
