<svg width="16" height="16" viewBox="0 0 16 16" fill="none" xmlns="http://www.w3.org/2000/svg">
<path d="M8.00065 14.6668C4.31875 14.6668 1.33398 11.682 1.33398 8.00016C1.33398 4.31826 4.31875 1.3335 8.00065 1.3335C11.6825 1.3335 14.6673 4.31826 14.6673 8.00016C14.6673 11.682 11.6825 14.6668 8.00065 14.6668ZM8.00065 13.3335C10.9462 13.3335 13.334 10.9457 13.334 8.00016C13.334 5.05464 10.9462 2.66683 8.00065 2.66683C5.05513 2.66683 2.66732 5.05464 2.66732 8.00016C2.66732 10.9457 5.05513 13.3335 8.00065 13.3335ZM8.66732 8.00016H10.6673C11.0355 8.00016 11.334 8.29864 11.334 8.66683C11.334 9.03502 11.0355 9.3335 10.6673 9.3335H7.83398C7.55784 9.3335 7.33398 9.10964 7.33398 8.8335V5.33349C7.33398 4.96531 7.63246 4.66683 8.00065 4.66683C8.36884 4.66683 8.66732 4.96531 8.66732 5.3335V8.00016Z" fill="#49494D"/>
</svg>
