<svg width="16" height="16" viewBox="0 0 16 16" fill="none" xmlns="http://www.w3.org/2000/svg">
<path d="M5.33398 0.666748C5.70217 0.666748 6.00065 0.965225 6.00065 1.33341V2.00008H10.0007V1.33341C10.0007 0.965225 10.2991 0.666748 10.6673 0.666748C11.0355 0.666748 11.334 0.965225 11.334 1.33341V2.00008H14.0007C14.3689 2.00008 14.6673 2.29856 14.6673 2.66675V13.3334C14.6673 13.7016 14.3689 14.0001 14.0007 14.0001H2.00065C1.63246 14.0001 1.33398 13.7016 1.33398 13.3334V2.66675C1.33398 2.29856 1.63246 2.00008 2.00065 2.00008H4.66732V1.33341C4.66732 0.965225 4.96579 0.666748 5.33398 0.666748ZM13.334 7.33342H2.66732V12.6667H13.334V7.33342ZM5.33398 8.66675V10.0001H4.00065V8.66675H5.33398ZM8.66732 8.66675V10.0001H7.33398V8.66675H8.66732ZM12.0007 8.66675V10.0001H10.6673V8.66675H12.0007ZM4.66732 3.33341H2.66732V6.00008H13.334V3.33341H11.334V4.00008C11.334 4.36827 11.0355 4.66675 10.6673 4.66675C10.2991 4.66675 10.0007 4.36827 10.0007 4.00008V3.33341H6.00065V4.00008C6.00065 4.36827 5.70217 4.66675 5.33398 4.66675C4.96579 4.66675 4.66732 4.36827 4.66732 4.00008V3.33341Z" fill="#49494D"/>
</svg>
