<svg width="16" height="16" viewBox="0 0 16 16" fill="none" xmlns="http://www.w3.org/2000/svg">
<path d="M6.67188 12.6191L10.0515 9.23954L11.0142 8.27679L14.3938 4.89719C14.6542 4.63684 14.6542 4.21473 14.3938 3.95438L14.2447 3.80521C13.9843 3.54486 13.5622 3.54486 13.3019 3.80521L9.92225 7.18481L8.9595 8.14756L5.5799 11.5272C5.31955 11.7875 5.31955 12.2096 5.5799 12.47L5.72907 12.6191C5.98942 12.8795 6.41153 12.8795 6.67188 12.6191Z" fill="#CDCDD1"/>
<path d="M6.82206 11.5291L5.12918 9.83621L4.58811 9.29514L2.89523 7.60226C2.63488 7.34191 2.21277 7.34191 1.95242 7.60226L1.80326 7.75143C1.54291 8.01178 1.54291 8.43389 1.80326 8.69424L3.49613 10.3871L4.03721 10.9282L5.73008 12.6211C5.99043 12.8814 6.41254 12.8814 6.67289 12.6211L6.82206 12.4719C7.08241 12.2116 7.08241 11.7894 6.82206 11.5291Z" fill="#CDCDD1"/>
</svg>
