<svg width="40" height="40" viewBox="0 0 40 40" fill="none" xmlns="http://www.w3.org/2000/svg">
<rect width="40" height="40" rx="20" fill="#F5F5FA"/>
<path d="M20 22.118L17.6835 24.4346C17.8873 24.9145 18 25.4424 18 25.9967C18 28.2059 16.2091 29.9967 14 29.9967C11.7909 29.9967 10 28.2059 10 25.9967C10 23.7876 11.7909 21.9967 14 21.9967C14.5543 21.9967 15.0822 22.1095 15.5622 22.3132L17.8787 19.9967L12.2114 14.3295C11.4304 13.5484 11.4304 12.2821 12.2114 11.5011L12.9185 10.7939L20 17.8754L27.0815 10.7939L27.7886 11.5011C28.5696 12.2821 28.5696 13.5484 27.7886 14.3295L22.1213 19.9967L24.4379 22.3132C24.9178 22.1095 25.4457 21.9967 26 21.9967C28.2091 21.9967 30 23.7876 30 25.9967C30 28.2059 28.2091 29.9967 26 29.9967C23.7909 29.9967 22 28.2059 22 25.9967C22 25.4424 22.1127 24.9145 22.3165 24.4346L20 22.118ZM14 27.9967C15.1046 27.9967 16 27.1013 16 25.9967C16 24.8921 15.1046 23.9967 14 23.9967C12.8954 23.9967 12 24.8921 12 25.9967C12 27.1013 12.8954 27.9967 14 27.9967ZM26 27.9967C27.1046 27.9967 28 27.1013 28 25.9967C28 24.8921 27.1046 23.9967 26 23.9967C24.8954 23.9967 24 24.8921 24 25.9967C24 27.1013 24.8954 27.9967 26 27.9967Z" fill="#7899F0"/>
</svg>
