<svg width="16" height="16" viewBox="0 0 16 16" fill="none" xmlns="http://www.w3.org/2000/svg">
<path d="M4.66683 2.66732V1.83398C4.66683 1.55784 4.89069 1.33398 5.16683 1.33398H10.8335C11.1096 1.33398 11.3335 1.55784 11.3335 1.83398V2.66732H14.0002C14.3684 2.66732 14.6668 2.96579 14.6668 3.33398C14.6668 3.70217 14.3684 4.00065 14.0002 4.00065H13.3335V14.0007C13.3335 14.3689 13.035 14.6673 12.6668 14.6673H3.3335C2.96531 14.6673 2.66683 14.3689 2.66683 14.0007V4.00065H2.00016C1.63197 4.00065 1.3335 3.70217 1.3335 3.33398C1.3335 2.96579 1.63197 2.66732 2.00016 2.66732H4.66683ZM4.00016 4.00065V13.334H12.0002V4.00065H4.00016ZM6.00016 6.00065H7.3335V11.334H6.00016V6.00065ZM8.66683 6.00065H10.0002V11.334H8.66683V6.00065Z" fill="#49494D"/>
</svg>
