<svg width="40" height="40" viewBox="0 0 40 40" fill="none" xmlns="http://www.w3.org/2000/svg">
<rect width="40" height="40" rx="20" fill="#F5F5FA"/>
<path d="M29.7929 14.7929C30.1834 15.1834 30.1834 15.8166 29.7929 16.2071L29.7071 16.2929C29.3166 16.6834 28.6834 16.6834 28.2929 16.2929L26.75 14.75L24.5 17L27.5429 20.0429C27.9334 20.4334 27.9334 21.0666 27.5429 21.4571L27.4571 21.5429C27.0666 21.9334 26.4335 21.9334 26.0429 21.5429L26 21.5L19.5429 27.9571C19.3554 28.1447 19.101 28.25 18.8358 28.25H13.25L11.7071 29.7929C11.3166 30.1834 10.6834 30.1834 10.2929 29.7929L10.2071 29.7071C9.81659 29.3166 9.81659 28.6834 10.2071 28.2929L11.75 26.75V21.1642C11.75 20.899 11.8554 20.6446 12.0429 20.4571L18.5 14L18.4571 13.9571C18.0666 13.5666 18.0666 12.9334 18.4571 12.5429L18.5429 12.4571C18.9334 12.0666 19.5666 12.0666 19.9571 12.4571L23 15.5L25.2499 13.25L23.7071 11.7071C23.3165 11.3166 23.3165 10.6834 23.7071 10.2929L23.7928 10.2071C24.1834 9.81658 24.8165 9.81658 25.2071 10.2071L29.7929 14.7929ZM24.5 20L20 15.5L18.5 17L20.0429 18.5429C20.4334 18.9334 20.4334 19.5666 20.0429 19.9571L19.9571 20.0429C19.5666 20.4334 18.9334 20.4334 18.5429 20.0429L17 18.5L15.5 20L17.0429 21.5429C17.4334 21.9334 17.4334 22.5665 17.0429 22.9571L16.9571 23.0429C16.5666 23.4334 15.9334 23.4334 15.5429 23.0429L14 21.5L13.8713 21.6287V26.1287H18.3714L24.5 20Z" fill="#7899F0"/>
</svg>
