<svg width="40" height="40" viewBox="0 0 40 40" fill="none" xmlns="http://www.w3.org/2000/svg">
<rect width="40" height="40" rx="20" fill="#F5F5FA"/>
<path d="M16 9C16.5523 9 17 9.44772 17 10V11H23V10C23 9.44772 23.4477 9 24 9C24.5523 9 25 9.44772 25 10V11H29C29.5523 11 30 11.4477 30 12V28C30 28.5523 29.5523 29 29 29H11C10.4477 29 10 28.5523 10 28V12C10 11.4477 10.4477 11 11 11H15V10C15 9.44772 15.4477 9 16 9ZM28 18H12V27H28V18ZM15 13H12V16H28V13H25V14C25 14.5523 24.5523 15 24 15C23.4477 15 23 14.5523 23 14V13H17V14C17 14.5523 16.5523 15 16 15C15.4477 15 15 14.5523 15 14V13Z" fill="#7899F0"/>
<path d="M21 21.5V19.5H19V21.5H17V23.5H18.999L19 25.5H21L20.999 23.5H23V21.5H21Z" fill="#7899F0"/>
</svg>
