<svg width="40" height="40" viewBox="0 0 40 40" fill="none" xmlns="http://www.w3.org/2000/svg">
<rect width="40" height="40" rx="20" fill="#F5F5FA"/>
<path d="M24 9C24.5523 9 25 9.44772 25 10V11H28C28.5523 11 29 11.4477 29 12V29C29 29.5523 28.5523 30 28 30H12C11.4477 30 11 29.5523 11 29V12C11 11.4477 11.4477 11 12 11H15V10C15 9.44772 15.4477 9 16 9H24ZM15 13H13V28H27V13H25V14C25 14.5523 24.5523 15 24 15H16C15.4477 15 15 14.5523 15 14V13ZM21 18V20H23V22H20.999L21 24H19L18.999 22H17V20H19V18H21ZM23 11H17V13H23V11Z" fill="#7899F0"/>
</svg>
