<svg width="32" height="32" viewBox="0 0 32 32" fill="none" xmlns="http://www.w3.org/2000/svg">
<path d="M29.3318 21.9082C28.8574 21.9082 28.4102 21.6147 28.2352 21.1372L24.2376 14.6824H8.76076L4.76321 21.1372C4.54156 21.7478 3.87271 22.057 3.26608 21.8339C2.65945 21.6108 2.35224 20.9376 2.5739 20.327L6.84754 13.105C7.01475 12.6432 7.45417 12.334 7.94414 12.334H25.0543C25.5442 12.334 25.9798 12.6432 26.1509 13.105L30.4284 20.3309C30.65 20.9415 30.3389 21.6147 29.7362 21.8378C29.604 21.8848 29.4679 21.9082 29.3357 21.9082H29.3318Z" fill="#EDEDF2"/>
<path d="M29.7206 19.9502H19.2212V20.6391C19.2212 22.0324 18.2296 23.2732 16.8569 23.4493C15.1965 23.6646 13.7771 22.3612 13.7771 20.733V19.9502H3.27773C2.84998 19.9502 2.5 20.3025 2.5 20.733V30.1266C2.5 30.7763 3.02108 31.3008 3.6666 31.3008H29.3318C29.9773 31.3008 30.4984 30.7763 30.4984 30.1266V20.733C30.4984 20.3025 30.1484 19.9502 29.7206 19.9502Z" fill="#EDEDF2"/>
<path d="M16.5 16.5C12.0817 16.5 8.5 12.9182 8.5 8.5C8.5 4.08172 12.0817 0.5 16.5 0.5C20.9182 0.5 24.5 4.08172 24.5 8.5C24.5 12.9182 20.9182 16.5 16.5 16.5ZM16.5 7.36864L14.2373 5.10589L13.1059 6.23726L15.3686 8.5L13.1059 10.7627L14.2373 11.8941L16.5 9.63136L18.7627 11.8941L19.8941 10.7627L17.6314 8.5L19.8941 6.23726L18.7627 5.10589L16.5 7.36864Z" fill="#CDCDD1"/>
</svg>
