<svg width="14" height="14" viewBox="0 0 14 14" fill="none" xmlns="http://www.w3.org/2000/svg">
<rect width="14" height="14" rx="7" fill="#2C2C2E"/>
<path d="M6.85778 10.5C6.70963 10.5 6.58815 10.4514 6.49333 10.3542C6.40444 10.2569 6.36 10.1324 6.36 9.98047C6.36 9.83464 6.40444 9.71615 6.49333 9.625C6.58815 9.52778 6.70963 9.47917 6.85778 9.47917C7.00593 9.47917 7.12444 9.52778 7.21333 9.625C7.30222 9.71615 7.34667 9.83464 7.34667 9.98047C7.34667 10.1385 7.30222 10.263 7.21333 10.3542C7.12444 10.4514 7.00593 10.5 6.85778 10.5ZM5 4.98568C5.16 4.54818 5.42667 4.19271 5.8 3.91927C6.17333 3.63976 6.5763 3.5 7.00889 3.5C7.4 3.5 7.74667 3.58203 8.04889 3.74609C8.35111 3.90408 8.58519 4.12891 8.75111 4.42057C8.91704 4.71224 9 5.0434 9 5.41406C9 5.76042 8.90815 6.09462 8.72444 6.41667C8.54667 6.73872 8.24741 7.06076 7.82667 7.38281C7.59556 7.55903 7.44148 7.7322 7.36444 7.90234C7.28741 8.06641 7.25185 8.31858 7.25778 8.65885L6.45778 8.67708C6.45185 8.21528 6.51704 7.8355 6.65333 7.53776C6.78963 7.24002 7.02074 6.96962 7.34667 6.72656C7.67852 6.47135 7.9037 6.24653 8.02222 6.05208C8.14074 5.85764 8.2 5.64497 8.2 5.41406C8.2 5.09201 8.08741 4.83073 7.86222 4.63021C7.64296 4.42361 7.35852 4.32031 7.00889 4.32031C6.74222 4.32031 6.49037 4.40842 6.25333 4.58464C6.02222 4.76085 5.85333 4.99175 5.74667 5.27734L5 4.98568Z" fill="white" stroke="white" stroke-width="0.25"/>
</svg>
