<svg width="24" height="14" viewBox="0 0 24 14" fill="none" xmlns="http://www.w3.org/2000/svg">
<g clip-path="url(#clip0_4086_178)">
<path d="M8.55416 5.43652C8.0272 5.43652 7.59863 5.86932 7.59863 6.40222C7.59863 6.93513 8.0272 7.36792 8.55416 7.36792C9.08112 7.36792 9.50969 6.93513 9.50969 6.40222C9.50969 5.86932 9.08112 5.43652 8.55416 5.43652Z" fill="white"/>
<path d="M17.7091 7.26406C17.4974 7.04955 17.2149 6.93213 16.9153 6.93213C16.6157 6.93213 16.3332 7.0503 16.1215 7.26406L12.8584 10.5608C12.4209 11.0027 12.4209 11.7222 12.8584 12.1648C13.0701 12.3793 13.3526 12.4968 13.6522 12.4968C13.9518 12.4968 14.2343 12.3786 14.446 12.1648L17.7091 8.86804C18.1466 8.42622 18.1466 7.70665 17.7091 7.26406Z" fill="white"/>
<path d="M21.7325 7.26455C21.5209 7.05004 21.2384 6.93262 20.9387 6.93262C20.6391 6.93262 20.3566 7.05079 20.145 7.26455L16.8818 10.5613C16.4443 11.0032 16.4443 11.7227 16.8818 12.1646C17.0935 12.3791 17.376 12.4965 17.6756 12.4965C17.9753 12.4965 18.2577 12.3783 18.4694 12.1646L21.7325 8.86778C22.17 8.4252 22.17 7.70638 21.7325 7.2638V7.26455Z" fill="white"/>
<path d="M22.9205 5.06348C22.3585 5.06348 21.9009 5.52563 21.9009 6.09315C21.9009 6.66068 22.3585 7.12283 22.9205 7.12283C23.4825 7.12283 23.9394 6.66068 23.9394 6.09315C23.9394 5.52563 23.4825 5.06348 22.9205 5.06348Z" fill="white"/>
<path d="M15.882 4.08865V4.08262L15.8291 4.03069C15.8209 4.02241 15.001 3.22155 13.8733 2.34316C12.4295 1.21865 11.158 0.48026 10.0944 0.150582C9.10458 -0.155762 8.11029 0.0113348 7.43427 0.596926C7.0616 0.921335 6.46682 1.66725 6.66657 3.01531C6.6688 3.03488 6.67253 3.05521 6.67551 3.07628C5.23924 3.66789 4.28296 4.62757 3.83278 5.93123C3.80893 6.00424 3.78433 6.04865 3.77241 6.06746C3.60098 6.33166 3.05986 6.96542 1.74657 7.13854C1.35452 7.18972 1.0057 7.41026 0.788803 7.7437L0.785822 7.74822C0.580107 8.06886 0.516008 8.46327 0.610666 8.82983L0.620356 8.86445C0.899859 9.84972 1.49241 11.2588 2.72744 12.3795C3.8857 13.4303 5.3175 13.9632 6.98334 13.9632C7.49911 13.9632 8.038 13.9112 8.58657 13.8081L8.59328 13.8066C9.14483 13.6982 9.50632 13.1781 9.41613 12.6174L9.41166 12.5925C9.36172 12.3193 9.20818 12.0814 8.98085 11.9234C8.75278 11.7661 8.47849 11.7074 8.20868 11.7585C7.05265 11.9761 6.03303 11.8985 5.17961 11.5282C4.50135 11.2339 3.92147 10.7537 3.46011 10.1049C3.29613 9.84144 3.20669 9.60585 3.19551 9.40488C3.18731 9.25736 3.21936 9.13241 3.29539 9.02252C3.35054 8.94273 3.42657 8.87349 3.52272 8.81553C3.55253 8.79746 3.58383 8.7809 3.61812 8.76585L3.64793 8.75305C3.64793 8.75305 3.65315 8.7508 3.65539 8.75004H3.66582L3.68147 8.738C4.66011 8.28789 5.21092 7.65789 5.50011 7.20854C5.6134 7.03467 5.70657 6.83972 5.78408 6.61316C6.16272 5.51198 7.15626 5.08144 7.87104 4.85413C8.53439 4.64187 8.94209 3.95693 8.81986 3.26144L8.8139 3.22983C8.80421 3.1809 8.79228 3.1237 8.78036 3.06499L8.73415 2.84822C8.7252 2.80531 8.71402 2.75112 8.7088 2.70972L8.70284 2.66757C8.68868 2.55693 8.68719 2.45983 8.69762 2.37854C8.70955 2.28219 8.73862 2.21219 8.78185 2.17456C8.837 2.12639 8.93241 2.09478 9.05017 2.08574C9.17613 2.07596 9.31849 2.09176 9.45936 2.13166L9.48918 2.14069C10.5565 2.47263 11.8258 3.36832 12.7023 4.06155C13.2047 4.45822 13.6355 4.83381 13.9083 5.07843C14.0671 5.22069 14.1886 5.33359 14.2623 5.40284C14.3041 5.44198 14.3369 5.47284 14.3592 5.49467L14.3958 5.53004C14.8057 5.92746 15.4594 5.91617 15.8529 5.50445C16.2308 5.10929 16.2405 4.49359 15.8805 4.08789L15.882 4.08865Z" fill="white"/>
<path d="M1.31255 9.64808C2.03776 9.64808 2.62509 9.05421 2.62509 8.32184C2.62509 7.58948 2.03702 6.99561 1.31255 6.99561C0.588075 6.99561 0 7.58948 0 8.32184C0 9.05421 0.588075 9.64808 1.31255 9.64808Z" fill="white"/>
</g>
<defs>
<clipPath id="clip0_4086_178">
<rect width="24" height="14" fill="white"/>
</clipPath>
</defs>
</svg>
