<svg width="10" height="24" viewBox="0 0 10 24" fill="none" xmlns="http://www.w3.org/2000/svg">
<path d="M4.64993 0C6.36096 0 7.75006 1.38912 7.75006 3.10016C7.75006 4.81121 6.36096 6.20033 4.64993 6.20033C2.9389 6.20033 1.5498 4.81121 1.5498 3.10016C1.5498 1.38912 2.9389 0 4.64993 0Z" fill="white"/>
<path d="M4.65019 13.1776C6.42538 13.1776 8.05908 14.0749 9.03343 15.5355C9.20161 15.0549 9.30038 14.5422 9.30038 14.0054V13.1136C9.30038 10.5447 7.2182 8.46191 4.65019 8.46191C2.08217 8.46191 0 10.5447 0 13.1136V14.0054C0 14.5422 0.0987698 15.0549 0.266945 15.5355C1.2413 14.0749 2.875 13.1776 4.65019 13.1776Z" fill="white"/>
<path d="M4.65019 19.2841C2.875 19.2841 1.2413 18.3869 0.266945 16.9263C0.0987698 17.4069 0 17.9196 0 18.4563V19.3482C0 21.917 2.08217 23.9999 4.65019 23.9999C7.2182 23.9999 9.30038 21.917 9.30038 19.3482V18.4563C9.30038 17.9196 9.20161 17.4069 9.03343 16.9263C8.05908 18.3869 6.42538 19.2841 4.65019 19.2841Z" fill="white"/>
<path d="M4.64974 18.0266C6.00316 18.0266 7.2578 17.3457 7.99991 16.2295C7.2578 15.1133 6.00582 14.4351 4.64974 14.4351C3.29366 14.4351 2.04168 15.116 1.30225 16.2295C2.04435 17.3457 3.29633 18.0266 4.64974 18.0266Z" fill="white"/>
</svg>
