<?xml version="1.0" encoding="UTF-8"?>
<svg id="_레이어_1" data-name="레이어_1" xmlns="http://www.w3.org/2000/svg" version="1.1" viewBox="0 0 16 16">
  <!-- Generator: Adobe Illustrator 30.1.0, SVG Export Plug-In . SVG Version: 2.1.1 Build 136)  -->
  <defs>
    <style>
      .st0 {
        fill: #ccc;
      }
    </style>
  </defs>
  <path class="st0" d="M6,5.5c0,.8-.7,1.5-1.5,1.5s-1.5-.7-1.5-1.5.7-1.5,1.5-1.5,1.5.7,1.5,1.5"/>
  <path class="st0" d="M2,1C.9,1,0,1.9,0,3v10C0,14.1.9,15,2,15h12c1.1,0,2-.9,2-2V3c0-1.1-.9-2-2-2H2ZM14,2c.6,0,1,.4,1,1v6.5l-3.8-1.9c-.2,0-.4,0-.6,0l-3.7,3.7-2.7-1.8c-.2-.1-.5-.1-.6,0l-2.6,2.4V3c0-.6.4-1,1-1h12Z"/>
</svg>