<svg width="12" height="12" viewBox="0 0 12 12" fill="none" xmlns="http://www.w3.org/2000/svg">
<g clip-path="url(#clip0_5440_23544)">
<path d="M6 12C2.68629 12 0 9.31368 0 6C0 2.68629 2.68629 0 6 0C9.31368 0 12 2.68629 12 6C12 9.31368 9.31368 12 6 12ZM6 10.8C8.65098 10.8 10.8 8.65098 10.8 6C10.8 3.34903 8.65098 1.2 6 1.2C3.34903 1.2 1.2 3.34903 1.2 6C1.2 8.65098 3.34903 10.8 6 10.8ZM6.6 5.1V7.8H7.2V9H4.8V7.8H5.4V6.3H4.8V5.1H6.6ZM6.9 3.6C6.9 4.09706 6.49704 4.5 6 4.5C5.50296 4.5 5.1 4.09706 5.1 3.6C5.1 3.10294 5.50296 2.7 6 2.7C6.49704 2.7 6.9 3.10294 6.9 3.6Z" fill="#49494D"/>
</g>
<defs>
<clipPath id="clip0_5440_23544">
<rect width="12" height="12" fill="white"/>
</clipPath>
</defs>
</svg>
