<svg width="20" height="20" viewBox="0 0 20 20" fill="none" xmlns="http://www.w3.org/2000/svg">
<path d="M4.95801 8.35059C5.51029 8.35059 5.95801 8.7983 5.95801 9.35059V15.1816C5.95794 15.7339 5.51025 16.1816 4.95801 16.1816H4C3.44776 16.1816 3.00007 15.7339 3 15.1816V9.35059C3 8.7983 3.44772 8.35059 4 8.35059H4.95801ZM10.1787 4C10.731 4 11.1787 4.44772 11.1787 5V15.1816C11.1786 15.7339 10.731 16.1816 10.1787 16.1816H9.2207C8.66846 16.1816 8.22077 15.7339 8.2207 15.1816V5C8.2207 4.44772 8.66842 4 9.2207 4H10.1787ZM15.3994 7.48047C15.9517 7.48047 16.3994 7.92818 16.3994 8.48047V15.1816C16.3993 15.7339 15.9517 16.1816 15.3994 16.1816H14.4414C13.8892 16.1816 13.4415 15.7339 13.4414 15.1816V8.48047C13.4414 7.92818 13.8891 7.48047 14.4414 7.48047H15.3994Z" fill="white"/>
</svg>
