<svg width="20" height="20" viewBox="0 0 20 20" fill="none" xmlns="http://www.w3.org/2000/svg">
<rect x="9.43848" y="4" width="1.12501" height="6.00018" fill="white" stroke="white" stroke-width="0.1"/>
<path d="M12.25 4.75C13.3942 5.21284 14.3721 6.01943 15.0449 7.06445C15.8141 8.25935 16.1342 9.68878 15.9482 11.0977C15.7622 12.5065 15.0823 13.8045 14.0293 14.7588C12.9763 15.713 11.6184 16.2626 10.1982 16.3096C8.77795 16.3564 7.38611 15.8974 6.27246 15.0146C5.15913 14.132 4.39484 12.8825 4.11621 11.4893C3.83767 10.0957 4.06331 8.64737 4.75195 7.4043C5.41837 6.20171 6.47814 5.2668 7.75 4.75195V6.38965C7.0382 6.79821 6.44601 7.39544 6.04395 8.12109C5.52508 9.05798 5.35551 10.149 5.56543 11.1992C5.77544 12.2496 6.35105 13.192 7.19043 13.8574C8.02982 14.5228 9.07891 14.8683 10.1494 14.833C11.2199 14.7976 12.2434 14.3832 13.0371 13.6641C13.8308 12.9447 14.3431 11.9662 14.4834 10.9043C14.6235 9.84235 14.3825 8.76492 13.8027 7.86426C13.4081 7.25123 12.874 6.74741 12.25 6.38965V4.75Z" fill="white"/>
<path d="M12.25 4.75L12.2687 4.70365L12.2 4.67584V4.75H12.25ZM15.0449 7.06445L15.087 7.03739L15.087 7.03739L15.0449 7.06445ZM15.9482 11.0977L15.9978 11.1042L15.9978 11.1042L15.9482 11.0977ZM14.0293 14.7588L14.0629 14.7958L14.0629 14.7958L14.0293 14.7588ZM10.1982 16.3096L10.1999 16.3595H10.1999L10.1982 16.3096ZM6.27246 15.0146L6.2414 15.0538L6.2414 15.0538L6.27246 15.0146ZM4.11621 11.4893L4.06718 11.4991L4.06718 11.4991L4.11621 11.4893ZM4.75195 7.4043L4.70822 7.38006L4.70822 7.38007L4.75195 7.4043ZM7.75 4.75195H7.8V4.67777L7.73124 4.70561L7.75 4.75195ZM7.75 6.38965L7.77489 6.43301L7.8 6.4186V6.38965H7.75ZM6.04395 8.12109L6.00021 8.09686L6.00021 8.09687L6.04395 8.12109ZM5.56543 11.1992L5.5164 11.209L5.5164 11.209L5.56543 11.1992ZM7.19043 13.8574L7.15937 13.8966L7.15937 13.8966L7.19043 13.8574ZM10.1494 14.833L10.1511 14.883H10.1511L10.1494 14.833ZM13.0371 13.6641L13.0707 13.7011L13.0707 13.7011L13.0371 13.6641ZM14.4834 10.9043L14.533 10.9108L14.533 10.9108L14.4834 10.9043ZM13.8027 7.86426L13.8448 7.83719L13.8448 7.83719L13.8027 7.86426ZM12.25 6.38965H12.2V6.41862L12.2251 6.43303L12.25 6.38965ZM12.25 4.75L12.2313 4.79635C13.3659 5.25533 14.3357 6.0552 15.0029 7.09152L15.0449 7.06445L15.087 7.03739C14.4085 5.98365 13.4225 5.17035 12.2687 4.70365L12.25 4.75ZM15.0449 7.06445L15.0029 7.09152C15.7657 8.27646 16.083 9.69397 15.8987 11.0911L15.9482 11.0977L15.9978 11.1042C16.1853 9.68359 15.8626 8.24225 15.087 7.03739L15.0449 7.06445ZM15.9482 11.0977L15.8987 11.0911C15.7141 12.4883 15.0399 13.7754 13.9957 14.7217L14.0293 14.7588L14.0629 14.7958C15.1247 13.8335 15.8102 12.5248 15.9978 11.1042L15.9482 11.0977ZM14.0293 14.7588L13.9957 14.7217C12.9515 15.668 11.605 16.213 10.1966 16.2596L10.1982 16.3096L10.1999 16.3595C11.6319 16.3122 13.0011 15.758 14.0629 14.7958L14.0293 14.7588ZM10.1982 16.3096L10.1966 16.2596C8.78813 16.306 7.40788 15.8509 6.30352 14.9755L6.27246 15.0146L6.2414 15.0538C7.36433 15.944 8.76776 16.4067 10.1999 16.3595L10.1982 16.3096ZM6.27246 15.0146L6.30352 14.9755C5.19947 14.1001 4.44155 12.8611 4.16524 11.4795L4.11621 11.4893L4.06718 11.4991C4.34814 12.9039 5.11879 14.1638 6.2414 15.0538L6.27246 15.0146ZM4.11621 11.4893L4.16524 11.4795C3.88902 10.0975 4.11279 8.66125 4.79569 7.42853L4.75195 7.4043L4.70822 7.38007C4.01384 8.6335 3.78632 10.0939 4.06718 11.4991L4.11621 11.4893ZM4.75195 7.4043L4.79569 7.42853C5.45653 6.23601 6.50746 5.30887 7.76876 4.7983L7.75 4.75195L7.73124 4.70561C6.44882 5.22473 5.38021 6.16742 4.70822 7.38006L4.75195 7.4043ZM7.75 4.75195H7.7V6.38965H7.75H7.8V4.75195H7.75ZM7.75 6.38965L7.72511 6.34628C7.00546 6.75935 6.40672 7.36317 6.00021 8.09686L6.04395 8.12109L6.08768 8.14533C6.48529 7.42771 7.07094 6.83707 7.77489 6.43301L7.75 6.38965ZM6.04395 8.12109L6.00021 8.09687C5.4756 9.04412 5.30416 10.1472 5.5164 11.209L5.56543 11.1992L5.61446 11.1894C5.40686 10.1508 5.57455 9.07185 6.08769 8.14532L6.04395 8.12109ZM5.56543 11.1992L5.5164 11.209C5.72873 12.271 6.31069 13.2238 7.15937 13.8966L7.19043 13.8574L7.22149 13.8182C6.39141 13.1602 5.82216 12.2282 5.61446 11.1894L5.56543 11.1992ZM7.19043 13.8574L7.15937 13.8966C8.00806 14.5693 9.06874 14.9186 10.1511 14.883L10.1494 14.833L10.1478 14.783C9.08908 14.8179 8.05159 14.4762 7.22149 13.8182L7.19043 13.8574ZM10.1494 14.833L10.1511 14.883C11.2333 14.8472 12.2682 14.4282 13.0707 13.7011L13.0371 13.6641L13.0035 13.627C12.2186 14.3382 11.2064 14.7481 10.1478 14.783L10.1494 14.833ZM13.0371 13.6641L13.0707 13.7011C13.8732 12.9738 14.3911 11.9845 14.533 10.9108L14.4834 10.9043L14.4338 10.8977C14.2951 11.948 13.7884 12.9157 13.0035 13.627L13.0371 13.6641ZM14.4834 10.9043L14.533 10.9108C14.6746 9.83716 14.431 8.74782 13.8448 7.83719L13.8027 7.86426L13.7607 7.89132C14.3341 8.78201 14.5724 9.84753 14.4338 10.8978L14.4834 10.9043ZM13.8027 7.86426L13.8448 7.83719C13.4457 7.21738 12.9058 6.70799 12.2749 6.34627L12.25 6.38965L12.2251 6.43303C12.8423 6.78684 13.3704 7.28508 13.7607 7.89132L13.8027 7.86426ZM12.25 6.38965H12.3V4.75H12.25H12.2V6.38965H12.25Z" fill="white"/>
</svg>
