<svg width="20" height="20" viewBox="0 0 20 20" fill="none" xmlns="http://www.w3.org/2000/svg">
<path d="M14.1631 9.15137C16.2788 9.15137 18.0009 10.912 18.001 13.0752C18.001 15.2384 16.2789 16.999 14.1631 16.999C12.0474 16.9989 10.3262 15.2384 10.3262 13.0752C10.3262 10.9121 12.0474 9.15147 14.1631 9.15137ZM11.9668 8.61621C10.3746 9.44018 9.27935 11.1288 9.2793 13.0742C9.2793 14.2138 9.65472 15.2647 10.2861 16.1064H3.52344C3.23396 16.1064 3.0001 15.8672 3 15.5713V8.61621H11.9668ZM14.2344 10.876C13.9451 10.8762 13.712 11.1153 13.7119 11.4111V13.0752C13.7119 13.2589 13.8043 13.4302 13.9561 13.5283L15.0635 14.2412C15.1507 14.2965 15.2468 14.3232 15.3428 14.3232C15.5169 14.3231 15.6858 14.2344 15.7852 14.0742V14.0762C15.9386 13.8265 15.8653 13.4948 15.6211 13.3379L14.7578 12.7812V11.4111C14.7577 11.1152 14.5238 10.876 14.2344 10.876ZM11.8955 3C12.3298 3 12.6807 3.35867 12.6807 3.80273V4.33594H15.0352C15.3246 4.33594 15.5584 4.57425 15.5586 4.87012V7.5459H3V4.87012C3.0002 4.57425 3.23402 4.33594 3.52344 4.33594H5.87793V3.80273C5.87793 3.35867 6.22877 3 6.66309 3C7.09731 3.0001 7.44824 3.35874 7.44824 3.80273V4.33594H11.1113V3.80273C11.1113 3.35879 11.4613 3.00018 11.8955 3Z" fill="white"/>
</svg>
