<svg width="20" height="20" viewBox="0 0 20 20" fill="none" xmlns="http://www.w3.org/2000/svg">
<path d="M15.0515 7.45455H15.7273C16.4302 7.45455 17 8.02436 17 8.72727V11.2727C17 11.9757 16.4302 12.5455 15.7273 12.5455H15.0515C14.7384 15.0567 12.5961 17 10 17V15.7273C12.1087 15.7273 13.8182 14.0178 13.8182 11.9091V8.09091C13.8182 5.98218 12.1087 4.27273 10 4.27273C7.89128 4.27273 6.18182 5.98218 6.18182 8.09091V12.5455H4.27273C3.56982 12.5455 3 11.9757 3 11.2727V8.72727C3 8.02436 3.56982 7.45455 4.27273 7.45455H4.94848C5.26163 4.94326 7.40388 3 10 3C12.5961 3 14.7384 4.94326 15.0515 7.45455ZM4.27273 8.72727V11.2727H4.90909V8.72727H4.27273ZM15.0909 8.72727V11.2727H15.7273V8.72727H15.0909ZM7.30146 12.4086L7.9761 11.3292C8.56284 11.6967 9.2566 11.9091 10 11.9091C10.7434 11.9091 11.4372 11.6967 12.0239 11.3292L12.6986 12.4086C11.9162 12.8986 10.9912 13.1818 10 13.1818C9.0088 13.1818 8.08379 12.8986 7.30146 12.4086Z" fill="white"/>
</svg>
