<svg width="12" height="12" viewBox="0 0 12 12" fill="none" xmlns="http://www.w3.org/2000/svg">
<path d="M9.18214 7.7679L8.47504 7.0608L9.18214 6.3537C10.1584 5.3774 10.1584 3.79448 9.18214 2.81817C8.20584 1.84186 6.62289 1.84186 5.64659 2.81817L4.93949 3.52528L4.23238 2.81817L4.93949 2.11106C6.30634 0.744229 8.52239 0.744229 9.88924 2.11106C11.2561 3.4779 11.2561 5.69395 9.88924 7.0608L9.18214 7.7679ZM7.76789 9.18215L7.06079 9.88925C5.69399 11.2561 3.4779 11.2561 2.11106 9.88925C0.744229 8.5224 0.744229 6.3063 2.11106 4.93949L2.81817 4.23238L3.52528 4.93949L2.81817 5.6466C1.84186 6.6229 1.84186 8.2058 2.81817 9.18215C3.79448 10.1585 5.37739 10.1585 6.35369 9.18215L7.06079 8.475L7.76789 9.18215ZM7.41434 3.87883L8.12149 4.58594L4.58594 8.12145L3.87883 7.41435L7.41434 3.87883Z" fill="#49494D"/>
</svg>
