<svg width="20" height="20" viewBox="0 0 20 20" fill="none" xmlns="http://www.w3.org/2000/svg">
<path d="M14 2C15.1046 2 16 2.89543 16 4V15.4287C15.9999 16.5332 15.1045 17.4287 14 17.4287H6C4.89548 17.4287 4.00008 16.5332 4 15.4287V4C4 2.89543 4.89543 2 6 2H14ZM10 14.8574C9.52675 14.8574 9.1428 15.2407 9.14258 15.7139C9.14258 16.1873 9.52661 16.5713 10 16.5713C10.4734 16.5713 10.8574 16.1873 10.8574 15.7139C10.8572 15.2407 10.4732 14.8574 10 14.8574ZM5.71387 4.57129V14H14.2861V4.57129H5.71387Z" fill="white"/>
</svg>
