<svg width="16" height="16" viewBox="0 0 16 16" fill="none" xmlns="http://www.w3.org/2000/svg">
<path d="M13.7105 7.25922C13.8962 7.45568 14.0005 7.72199 14.0005 7.99965C14.0005 8.27731 13.8962 8.54362 13.7105 8.74008L9.97221 12.693C9.78622 12.8896 9.53397 13 9.27094 13C9.00791 13 8.75566 12.8896 8.56967 12.693C8.38368 12.4965 8.2792 12.2299 8.2792 11.9519C8.2792 11.6739 8.38368 11.4073 8.56967 11.2108L10.616 9.04743L2.99191 9.04743C2.72897 9.04743 2.4768 8.93704 2.29087 8.74054C2.10494 8.54405 2.00049 8.27754 2.00049 7.99965C2.00049 7.72176 2.10494 7.45525 2.29087 7.25876C2.4768 7.06226 2.72897 6.95187 2.99191 6.95187L10.616 6.95187L8.56967 4.78925C8.47758 4.69192 8.40453 4.57638 8.35469 4.44921C8.30485 4.32205 8.2792 4.18576 8.2792 4.04812C8.2792 3.91048 8.30485 3.77418 8.35469 3.64702C8.40453 3.51986 8.47758 3.40431 8.56967 3.30699C8.66176 3.20966 8.77109 3.13246 8.89142 3.07978C9.01174 3.02711 9.1407 3 9.27094 3C9.40118 3 9.53014 3.02711 9.65046 3.07978C9.77079 3.13246 9.88012 3.20966 9.97221 3.30699L13.7105 7.25922Z" fill="#5D5D61"/>
</svg>
