<svg width="44" height="19" viewBox="0 0 44 19" fill="none" xmlns="http://www.w3.org/2000/svg">
<path d="M12.8691 2.81641V15.2852H11.1465V8.61328H8.83594V12.332H2.83398V3.77344H4.57031V6.79492H7.12695V3.77344H8.83594V7.20508H11.1465V2.81641H12.8691ZM4.57031 10.9375H7.12695V8.16211H4.57031V10.9375ZM25.5364 9.54297V10.9102H14.1614V9.54297H25.5364ZM24.388 13.6445V15.0391H15.5559V11.5391H17.2786V13.6445H24.388ZM24.3196 7.45117V8.76367H15.5833V3.22656H24.2102V4.55273H17.3333V5.3457H23.9231V6.63086H17.3333V7.45117H24.3196Z" fill="#0C75FF"/>
<path d="M35.5 9V5.5C35.5 5.22386 35.7239 5 36 5C36.2761 5 36.5 5.22386 36.5 5.5V9H40C40.2761 9 40.5 9.22386 40.5 9.5C40.5 9.77614 40.2761 10 40 10H36.5V13.5C36.5 13.7761 36.2761 14 36 14C35.7239 14 35.5 13.7761 35.5 13.5V10H32C31.7239 10 31.5 9.77614 31.5 9.5C31.5 9.22386 31.7239 9 32 9H35.5Z" fill="#0C75FF"/>
</svg>
