<svg width="16" height="16" viewBox="0 0 16 16" fill="none" xmlns="http://www.w3.org/2000/svg">
<rect width="16" height="16" rx="2" fill="#D659FF"/>
<g clip-path="url(#clip0_4234_3471)">
<path d="M5.99001 7.10645C5.68262 7.10645 5.43262 7.35376 5.43262 7.65827C5.43262 7.96279 5.68262 8.2101 5.99001 8.2101C6.2974 8.2101 6.5474 7.96279 6.5474 7.65827C6.5474 7.35376 6.2974 7.10645 5.99001 7.10645Z" fill="white"/>
<path d="M11.3305 8.15062C11.2071 8.02803 11.0423 7.96094 10.8675 7.96094C10.6927 7.96094 10.5279 8.02846 10.4045 8.15062L8.50098 10.0345C8.24577 10.287 8.24577 10.6981 8.50098 10.951C8.62446 11.0736 8.78924 11.1407 8.96403 11.1407C9.13881 11.1407 9.30359 11.0732 9.42707 10.951L11.3305 9.06717C11.5858 8.8147 11.5858 8.40352 11.3305 8.15062Z" fill="white"/>
<path d="M13.6772 8.15159C13.5537 8.02901 13.389 7.96191 13.2142 7.96191C13.0394 7.96191 12.8746 8.02944 12.7511 8.15159L10.8477 10.0355C10.5924 10.2879 10.5924 10.6991 10.8477 10.9516C10.9711 11.0742 11.1359 11.1413 11.3107 11.1413C11.4855 11.1413 11.6503 11.0737 11.7738 10.9516L13.6772 9.06772C13.9324 8.81482 13.9324 8.40406 13.6772 8.15116V8.15159Z" fill="white"/>
<path d="M14.3702 6.89355C14.0423 6.89355 13.7754 7.15764 13.7754 7.48194C13.7754 7.80624 14.0423 8.07033 14.3702 8.07033C14.698 8.07033 14.9645 7.80624 14.9645 7.48194C14.9645 7.15764 14.698 6.89355 14.3702 6.89355Z" fill="white"/>
<path d="M10.2643 6.33637V6.33293L10.2334 6.30325C10.2286 6.29852 9.75037 5.84089 9.09254 5.33895C8.25037 4.69637 7.50863 4.27443 6.88819 4.08605C6.3108 3.91099 5.7308 4.00648 5.33645 4.3411C5.11906 4.52648 4.77211 4.95271 4.88863 5.72304C4.88993 5.73422 4.89211 5.74583 4.89384 5.75787C4.05602 6.09594 3.49819 6.64433 3.23558 7.38927C3.22167 7.43099 3.20732 7.45637 3.20037 7.46712C3.10037 7.61809 2.78471 7.98024 2.01863 8.07916C1.78993 8.10841 1.58645 8.23443 1.45993 8.42497L1.45819 8.42755C1.33819 8.61078 1.3008 8.83615 1.35602 9.04562L1.36167 9.0654C1.52471 9.62841 1.87037 10.4336 2.5908 11.074C3.26645 11.6744 4.10167 11.9789 5.07341 11.9789C5.37428 11.9789 5.68863 11.9493 6.00863 11.8903L6.01254 11.8895C6.33428 11.8276 6.54515 11.5303 6.49254 11.2099L6.48993 11.1957C6.4608 11.0396 6.37124 10.9037 6.23863 10.8134C6.10558 10.7235 5.94558 10.6899 5.78819 10.7192C5.11384 10.8435 4.51906 10.7992 4.02124 10.5876C3.62558 10.4194 3.28732 10.145 3.01819 9.77422C2.92254 9.62368 2.87037 9.48906 2.86384 9.37422C2.85906 9.28992 2.87776 9.21852 2.92211 9.15572C2.95428 9.11013 2.99863 9.07056 3.05471 9.03744C3.07211 9.02712 3.09037 9.01766 3.11037 9.00906L3.12776 9.00175C3.12776 9.00175 3.1308 9.00046 3.13211 9.00003H3.13819L3.14732 8.99314C3.71819 8.73594 4.0395 8.37594 4.20819 8.11916C4.27428 8.01981 4.32863 7.90841 4.37384 7.77895C4.59471 7.1497 5.17428 6.90368 5.59124 6.77379C5.97819 6.6525 6.21602 6.2611 6.14471 5.86368L6.14124 5.84562C6.13558 5.81766 6.12863 5.78497 6.12167 5.75142L6.09471 5.62755C6.0895 5.60304 6.08297 5.57207 6.07993 5.54841L6.07645 5.52433C6.06819 5.4611 6.06732 5.40562 6.07341 5.35917C6.08037 5.30411 6.09732 5.26411 6.12254 5.24261C6.15471 5.21508 6.21037 5.19701 6.27906 5.19185C6.35254 5.18626 6.43558 5.19529 6.51776 5.21809L6.53515 5.22325C7.15776 5.41293 7.89819 5.92476 8.4095 6.32089C8.70254 6.54755 8.95384 6.76218 9.11298 6.90196C9.20558 6.98325 9.27645 7.04777 9.3195 7.08734C9.34384 7.1097 9.36297 7.12734 9.37602 7.13981L9.39732 7.16003C9.63645 7.38712 10.0178 7.38067 10.2473 7.1454C10.4678 6.9196 10.4734 6.56777 10.2634 6.33594L10.2643 6.33637Z" fill="white"/>
<path d="M1.76565 9.51277C2.1887 9.51277 2.5313 9.17341 2.5313 8.75492C2.5313 8.33642 2.18826 7.99707 1.76565 7.99707C1.34304 7.99707 1 8.33642 1 8.75492C1 9.17341 1.34304 9.51277 1.76565 9.51277Z" fill="white"/>
</g>
<defs>
<clipPath id="clip0_4234_3471">
<rect width="14" height="8" fill="white" transform="translate(1 4)"/>
</clipPath>
</defs>
</svg>
