<svg width="16" height="16" viewBox="0 0 16 16" fill="none" xmlns="http://www.w3.org/2000/svg">
<rect width="16" height="16" rx="2" fill="#0C75FF"/>
<path d="M8.00079 1C8.99889 1 9.8092 1.81031 9.8092 2.8084C9.8092 3.8065 8.99889 4.6168 8.00079 4.6168C7.00269 4.6168 6.19238 3.8065 6.19238 2.8084C6.19238 1.81031 7.00269 1 8.00079 1Z" fill="white"/>
<path d="M8.00021 8.68635C9.03573 8.68635 9.98873 9.20972 10.5571 10.0617C10.6552 9.78137 10.7128 9.48231 10.7128 9.16922V8.64897C10.7128 7.15051 9.49822 5.93555 8.00021 5.93555C6.5022 5.93555 5.2876 7.15051 5.2876 8.64897V9.16922C5.2876 9.48231 5.34521 9.78137 5.44332 10.0617C6.01169 9.20972 6.96468 8.68635 8.00021 8.68635Z" fill="white"/>
<path d="M8.00021 12.2484C6.96468 12.2484 6.01169 11.7251 5.44332 10.873C5.34521 11.1534 5.2876 11.4525 5.2876 11.7656V12.2858C5.2876 13.7843 6.5022 14.9992 8.00021 14.9992C9.49822 14.9992 10.7128 13.7843 10.7128 12.2858V11.7656C10.7128 11.4525 10.6552 11.1534 10.5571 10.873C9.98873 11.7251 9.03573 12.2484 8.00021 12.2484Z" fill="white"/>
<path d="M8.00007 11.515C8.78956 11.515 9.52144 11.1178 9.95433 10.4667C9.52144 9.81556 8.79112 9.41992 8.00007 9.41992C7.20902 9.41992 6.4787 9.81712 6.04736 10.4667C6.48026 11.1178 7.21058 11.515 8.00007 11.515Z" fill="white"/>
</svg>
