<svg width="12" height="12" viewBox="0 0 12 12" fill="none" xmlns="http://www.w3.org/2000/svg">
<g clip-path="url(#clip0_4481_25873)">
<path d="M10.5 0.5C10.5551 0.5 10.5994 0.544563 10.5996 0.599609C10.5996 0.654832 10.5552 0.700198 10.5 0.700195H8.10254L9.2998 1.59961C10.6366 2.6039 11.5 4.20112 11.5 6C11.5 9.03754 9.0376 11.5 6 11.5C2.96246 11.5 0.5 9.03754 0.5 6C0.5 3.1481 2.67105 0.802885 5.4502 0.527344C5.45709 0.52666 5.46076 0.527546 5.46289 0.52832C5.46567 0.529378 5.47012 0.531874 5.47559 0.537109C5.48771 0.548869 5.4999 0.570408 5.5 0.599609C5.5 0.624349 5.49104 0.652466 5.46387 0.680664C5.43503 0.710551 5.39088 0.734778 5.33984 0.741211C2.72425 1.0667 0.700195 3.29642 0.700195 6C0.700195 8.92712 3.07288 11.2998 6 11.2998C8.92712 11.2998 11.2998 8.92712 11.2998 6C11.2998 4.17782 10.38 2.57032 8.98145 1.61719L8.2002 1.08496V3C8.2002 3.05522 8.15483 3.09961 8.09961 3.09961C8.04456 3.09941 8 3.05509 8 3V0.5H10.5Z" fill="#49494D" stroke="#49494D"/>
</g>
<defs>
<clipPath id="clip0_4481_25873">
<rect width="12" height="12" fill="white"/>
</clipPath>
</defs>
</svg>
