<svg width="12" height="12" viewBox="0 0 12 12" fill="none" xmlns="http://www.w3.org/2000/svg">
<g clip-path="url(#clip0_4206_12707)">
<path d="M0.608897 8.99949C0.489225 8.79974 0.382828 8.59612 0.289443 8.38956C0.0897439 7.94787 0.347223 7.46312 0.64556 7.08106C0.880603 6.78006 1.01992 6.4057 1.01992 5.99999C1.01992 5.59435 0.880639 5.22003 0.645654 4.91904C0.347726 4.53743 0.0905785 4.05346 0.288997 3.61185C0.484268 3.17725 0.733397 2.76341 1.03353 2.38059C1.31849 2.01713 1.83543 1.99603 2.29226 2.06403C2.6979 2.12441 3.12683 2.05693 3.50996 1.84377C3.87328 1.64162 4.13946 1.33959 4.2927 0.994455C4.48712 0.556554 4.77697 0.0980238 5.2529 0.0428101C5.7525 -0.0151491 6.25435 -0.0137897 6.74747 0.0440499C7.22316 0.0998456 7.51312 0.557907 7.70777 0.995525C7.86108 1.34022 8.12708 1.64183 8.49004 1.84377C8.87285 2.05675 9.30138 2.12429 9.70671 2.06418C10.164 1.99637 10.6815 2.01787 10.9664 2.38198C11.1191 2.57714 11.2611 2.78342 11.3911 3.0005C11.5108 3.20025 11.6172 3.40387 11.7106 3.61041C11.9103 4.05211 11.6528 4.53685 11.3544 4.91891C11.1194 5.21991 10.9801 5.59428 10.9801 5.99999C10.9801 6.40567 11.1194 6.77999 11.3543 7.08097C11.6523 7.46257 11.9094 7.94653 11.711 8.38814C11.5157 8.82275 11.2666 9.2366 10.9665 9.61943C10.6815 9.98288 10.1646 10.004 9.70778 9.93599C9.30213 9.8756 8.87319 9.94306 8.49004 10.1562C8.12668 10.3584 7.86051 10.6604 7.70727 11.0056C7.51288 11.4435 7.22304 11.902 6.74713 11.9572C6.24753 12.0151 5.74566 12.0138 5.25251 11.9559C4.77683 11.9002 4.48687 11.4421 4.29224 11.0045C4.13892 10.6598 3.87292 10.3582 3.50996 10.1562C3.12716 9.94324 2.69865 9.87569 2.29332 9.93579C1.836 10.0036 1.31853 9.98209 1.03364 9.61798C0.880948 9.42283 0.738947 9.21656 0.608897 8.99949ZM4.13247 9.11719C4.66616 9.41412 5.08171 9.84658 5.34867 10.3508C5.48143 10.6016 5.71555 10.7999 5.99928 10.8002C6.28356 10.8006 6.51834 10.602 6.65135 10.3508C6.91832 9.84658 7.33384 9.41411 7.86752 9.11719C8.41373 8.81325 9.02567 8.68366 9.62558 8.72134C9.89383 8.73819 10.1684 8.64198 10.3069 8.41164C10.4525 8.16943 10.3949 7.86806 10.2369 7.63371C9.91643 7.15838 9.73506 6.59465 9.73506 5.99999C9.73506 5.40046 9.91942 4.83238 10.2448 4.35463C10.3991 4.12821 10.4537 3.83539 10.3129 3.6004C10.1702 3.36227 9.88703 3.26356 9.60988 3.27961C9.01503 3.31407 8.40901 3.18408 7.86752 2.88283C7.3338 2.58588 6.91829 2.15338 6.65131 1.64911C6.51856 1.39837 6.28447 1.20014 6.00076 1.1998C5.71648 1.19945 5.48169 1.39794 5.34866 1.64917C5.08167 2.15342 4.66615 2.58589 4.13247 2.88283C3.58625 3.18673 2.97434 3.31633 2.37445 3.27866C2.1062 3.26182 1.83167 3.35802 1.69314 3.58835C1.54748 3.83055 1.60509 4.13191 1.76308 4.36625C2.08356 4.84159 2.26494 5.40533 2.26494 5.99999C2.26494 6.59953 2.08058 7.1676 1.75518 7.64535C1.60096 7.87177 1.54632 8.1646 1.68712 8.39959C1.82981 8.63774 2.11296 8.73645 2.39012 8.7204C2.98499 8.68595 3.59101 8.81593 4.13247 9.11719ZM5.99999 7.79969C4.96861 7.79969 4.13247 6.99397 4.13247 5.99999C4.13247 5.00608 4.96861 4.2003 5.99999 4.2003C7.03143 4.2003 7.86752 5.00608 7.86752 5.99999C7.86752 6.99397 7.03143 7.79969 5.99999 7.79969ZM5.99999 6.59989C6.3438 6.59989 6.6225 6.33132 6.6225 5.99999C6.6225 5.66867 6.3438 5.40009 5.99999 5.40009C5.65618 5.40009 5.37748 5.66867 5.37748 5.99999C5.37748 6.33132 5.65618 6.59989 5.99999 6.59989Z" fill="#49494D"/>
</g>
<defs>
<clipPath id="clip0_4206_12707">
<rect width="12" height="12" fill="white"/>
</clipPath>
</defs>
</svg>
