<svg width="16" height="16" viewBox="0 0 16 16" fill="none" xmlns="http://www.w3.org/2000/svg">
<g clip-path="url(#clip0_3880_2554)">
<path d="M15 13.1324L9.88222 8.6517L15 4.2373V13.1324Z" fill="#49494D"/>
<path d="M7.07423 9.41316C7.34451 9.52362 7.63423 9.58186 7.93368 9.58387C7.93757 9.58387 7.94146 9.58387 7.94729 9.58387C8.28368 9.58387 8.6084 9.51157 8.9059 9.375L14.187 14.0003H1.81646L7.07423 9.41316Z" fill="#49494D"/>
<path d="M6.0791 8.70434L1.00021 13.1348V4.25781L6.0791 8.70434Z" fill="#49494D"/>
<path d="M8.81278 8.00703C8.57944 8.25004 8.27222 8.3846 7.93972 8.38059C7.60917 8.38059 7.3 8.24201 7.07056 7.999L7.02972 7.95883L1 2.67682V2.66879C1 2.29925 1.28972 2 1.6475 2H14.3525C14.7103 2 15 2.29925 15 2.66879L8.81278 8.00703Z" fill="#49494D"/>
</g>
<defs>
<clipPath id="clip0_3880_2554">
<rect width="14" height="12" fill="white" transform="matrix(-1 0 0 1 15 2)"/>
</clipPath>
</defs>
</svg>
