<svg width="16" height="16" viewBox="0 0 16 16" fill="none" xmlns="http://www.w3.org/2000/svg">
<rect x="1" y="1" width="14" height="14" rx="7" fill="#0C0C0D"/>
<path d="M7.85778 11.5C7.70963 11.5 7.58815 11.4514 7.49333 11.3542C7.40444 11.2569 7.36 11.1324 7.36 10.9805C7.36 10.8346 7.40444 10.7161 7.49333 10.625C7.58815 10.5278 7.70963 10.4792 7.85778 10.4792C8.00593 10.4792 8.12444 10.5278 8.21333 10.625C8.30222 10.7161 8.34667 10.8346 8.34667 10.9805C8.34667 11.1385 8.30222 11.263 8.21333 11.3542C8.12444 11.4514 8.00593 11.5 7.85778 11.5ZM6 5.98568C6.16 5.54818 6.42667 5.19271 6.8 4.91927C7.17333 4.63976 7.5763 4.5 8.00889 4.5C8.4 4.5 8.74667 4.58203 9.04889 4.74609C9.35111 4.90408 9.58519 5.12891 9.75111 5.42057C9.91704 5.71224 10 6.0434 10 6.41406C10 6.76042 9.90815 7.09462 9.72444 7.41667C9.54667 7.73872 9.24741 8.06076 8.82667 8.38281C8.59556 8.55903 8.44148 8.7322 8.36444 8.90234C8.28741 9.06641 8.25185 9.31858 8.25778 9.65885L7.45778 9.67708C7.45185 9.21528 7.51704 8.8355 7.65333 8.53776C7.78963 8.24002 8.02074 7.96962 8.34667 7.72656C8.67852 7.47135 8.9037 7.24653 9.02222 7.05208C9.14074 6.85764 9.2 6.64497 9.2 6.41406C9.2 6.09201 9.08741 5.83073 8.86222 5.63021C8.64296 5.42361 8.35852 5.32031 8.00889 5.32031C7.74222 5.32031 7.49037 5.40842 7.25333 5.58464C7.02222 5.76085 6.85333 5.99175 6.74667 6.27734L6 5.98568Z" fill="white" stroke="white" stroke-width="0.25"/>
</svg>
