<svg width="40" height="40" viewBox="0 0 40 40" fill="none" xmlns="http://www.w3.org/2000/svg">
<rect width="40" height="40" rx="20" fill="#E2F3FF"/>
<path d="M11 21C11 20.4477 11.4477 20 12 20H14C14.5523 20 15 20.4477 15 21V28C15 28.5523 14.5523 29 14 29H12C11.4477 29 11 28.5523 11 28V21ZM25 17C25 16.4477 25.4477 16 26 16H28C28.5523 16 29 16.4477 29 17V28C29 28.5523 28.5523 29 28 29H26C25.4477 29 25 28.5523 25 28V17ZM18 12C18 11.4477 18.4477 11 19 11H21C21.5523 11 22 11.4477 22 12V28C22 28.5523 21.5523 29 21 29H19C18.4477 29 18 28.5523 18 28V12Z" fill="#0C75FF"/>
</svg>
