<svg width="24" height="24" viewBox="0 0 24 24" fill="none" xmlns="http://www.w3.org/2000/svg">
<path d="M12 17.375C12.6764 17.375 13.2244 17.9232 13.2246 18.5996V21.9004C13.2244 22.5768 12.6764 23.125 12 23.125C11.3236 23.125 10.7756 22.5768 10.7754 21.9004V18.5996C10.7756 17.9232 11.3236 17.375 12 17.375ZM6.4668 15.8008C6.94519 15.3224 7.72082 15.3224 8.19922 15.8008C8.67758 16.2792 8.67761 17.0548 8.19922 17.5332L5.86621 19.8662C5.38781 20.3446 4.61219 20.3446 4.13379 19.8662C3.65543 19.3877 3.6554 18.6122 4.13379 18.1338L6.4668 15.8008ZM15.8008 15.8008C16.2792 15.3224 17.0548 15.3224 17.5332 15.8008L19.8662 18.1338C20.3446 18.6122 20.3446 19.3877 19.8662 19.8662C19.3877 20.3446 18.6122 20.3446 18.1338 19.8662L15.8008 17.5332C15.3224 17.0548 15.3224 16.2792 15.8008 15.8008ZM5.40039 10.7754C6.07675 10.7756 6.625 11.3236 6.625 12C6.625 12.6764 6.07675 13.2244 5.40039 13.2246H2.09961C1.42325 13.2244 0.875 12.6764 0.875 12C0.875 11.3236 1.42325 10.7756 2.09961 10.7754H5.40039ZM21.9004 10.7754C22.5768 10.7756 23.125 11.3236 23.125 12C23.125 12.6764 22.5768 13.2244 21.9004 13.2246H18.5996C17.9232 13.2244 17.375 12.6764 17.375 12C17.375 11.3236 17.9232 10.7756 18.5996 10.7754H21.9004ZM4.13379 4.13379C4.61219 3.6554 5.38781 3.6554 5.86621 4.13379L8.19922 6.4668C8.6776 6.9452 8.6776 7.72082 8.19922 8.19922C7.72082 8.6776 6.9452 8.6776 6.4668 8.19922L4.13379 5.86621C3.6554 5.38781 3.6554 4.61219 4.13379 4.13379ZM18.1338 4.13379C18.6122 3.6554 19.3877 3.65543 19.8662 4.13379C20.3446 4.61219 20.3446 5.38781 19.8662 5.86621L17.5332 8.19922C17.0548 8.67761 16.2792 8.67758 15.8008 8.19922C15.3224 7.72082 15.3224 6.94519 15.8008 6.4668L18.1338 4.13379ZM12 0.875C12.6764 0.875 13.2244 1.42325 13.2246 2.09961V5.40039C13.2244 6.07675 12.6764 6.625 12 6.625C11.3236 6.625 10.7756 6.07675 10.7754 5.40039V2.09961C10.7756 1.42325 11.3236 0.875 12 0.875Z" fill="#0C75FF" stroke="#0C75FF" stroke-width="0.25"/>
</svg>
