<svg width="16" height="16" viewBox="0 0 16 16" fill="none" xmlns="http://www.w3.org/2000/svg">
<path fill-rule="evenodd" clip-rule="evenodd" d="M13.3467 4.21777C13.6371 3.92741 14.1081 3.92741 14.3985 4.21777C14.6889 4.50813 14.6889 4.97819 14.3985 5.26855L11.1455 8.52246L10.2002 9.46679L7.00491 12.6602C6.97709 12.703 6.9448 12.7437 6.90726 12.7812C6.61685 13.0716 6.14591 13.0716 5.8555 12.7812L4.29691 11.2236L3.7764 10.7021L2.2178 9.14453C1.9274 8.85417 1.9274 8.38313 2.2178 8.09277C2.50821 7.80245 2.97917 7.80242 3.26956 8.09277L6.37015 11.1934L9.14847 8.41503L10.0938 7.4707L13.3467 4.21777Z" fill="white"/>
</svg>
