<svg width="16" height="16" viewBox="0 0 16 16" fill="none" xmlns="http://www.w3.org/2000/svg">
<path d="M5.33332 2V3.33333H3.99999V6C3.99999 7.47273 5.1939 8.66667 6.66666 8.66667C8.13939 8.66667 9.33332 7.47273 9.33332 6V3.33333H7.99999V2H9.99999C10.3682 2 10.6667 2.29848 10.6667 2.66667V6C10.6667 7.9818 9.22539 9.627 7.33386 9.9446L7.33332 11C7.33332 12.2887 8.37799 13.3333 9.66666 13.3333C10.6649 13.3333 11.5167 12.7065 11.8499 11.825C11.1522 11.5133 10.6667 10.8134 10.6667 10C10.6667 8.8954 11.5621 8 12.6667 8C13.7713 8 14.6667 8.8954 14.6667 10C14.6667 10.9141 14.0535 11.6849 13.216 11.9236C12.8068 13.5013 11.3728 14.6667 9.66666 14.6667C7.64159 14.6667 5.99999 13.0251 5.99999 11L6.00012 9.94473C4.10824 9.6274 2.66666 7.98207 2.66666 6V2.66667C2.66666 2.29848 2.96514 2 3.33332 2H5.33332ZM12.6667 9.33333C12.2985 9.33333 12 9.6318 12 10C12 10.3682 12.2985 10.6667 12.6667 10.6667C13.0349 10.6667 13.3333 10.3682 13.3333 10C13.3333 9.6318 13.0349 9.33333 12.6667 9.33333Z" fill="white"/>
</svg>
