<svg width="16" height="16" viewBox="0 0 16 16" fill="none" xmlns="http://www.w3.org/2000/svg">
<path d="M4.11373 11.9987C4.38828 11.2219 5.12911 10.6654 5.99992 10.6654C6.87072 10.6654 7.61158 11.2219 7.88612 11.9987H14.6666V13.332H7.88612C7.61158 14.1088 6.87072 14.6654 5.99992 14.6654C5.12911 14.6654 4.38828 14.1088 4.11373 13.332H1.33325V11.9987H4.11373ZM8.11372 7.33203C8.38825 6.55524 9.12912 5.9987 9.99992 5.9987C10.8707 5.9987 11.6116 6.55524 11.8861 7.33203H14.6666V8.66536H11.8861C11.6116 9.44216 10.8707 9.9987 9.99992 9.9987C9.12912 9.9987 8.38825 9.44216 8.11372 8.66536H1.33325V7.33203H8.11372ZM4.11373 2.66536C4.38828 1.88857 5.12911 1.33203 5.99992 1.33203C6.87072 1.33203 7.61158 1.88857 7.88612 2.66536H14.6666V3.9987H7.88612C7.61158 4.77549 6.87072 5.33203 5.99992 5.33203C5.12911 5.33203 4.38828 4.77549 4.11373 3.9987H1.33325V2.66536H4.11373ZM5.99992 3.9987C6.3681 3.9987 6.66658 3.70022 6.66658 3.33203C6.66658 2.96384 6.3681 2.66536 5.99992 2.66536C5.63173 2.66536 5.33325 2.96384 5.33325 3.33203C5.33325 3.70022 5.63173 3.9987 5.99992 3.9987ZM9.99992 8.66536C10.3681 8.66536 10.6666 8.3669 10.6666 7.9987C10.6666 7.6305 10.3681 7.33203 9.99992 7.33203C9.63172 7.33203 9.33325 7.6305 9.33325 7.9987C9.33325 8.3669 9.63172 8.66536 9.99992 8.66536ZM5.99992 13.332C6.3681 13.332 6.66658 13.0336 6.66658 12.6654C6.66658 12.2972 6.3681 11.9987 5.99992 11.9987C5.63173 11.9987 5.33325 12.2972 5.33325 12.6654C5.33325 13.0336 5.63173 13.332 5.99992 13.332Z" fill="#5D5D61"/>
</svg>
