<svg width="16" height="16" viewBox="0 0 16 16" fill="none" xmlns="http://www.w3.org/2000/svg">
<path d="M4.11397 11.9987C4.38852 11.2219 5.12935 10.6654 6.00016 10.6654C6.87096 10.6654 7.61183 11.2219 7.88636 11.9987H14.6668V13.332H7.88636C7.61183 14.1088 6.87096 14.6654 6.00016 14.6654C5.12935 14.6654 4.38852 14.1088 4.11397 13.332H1.3335V11.9987H4.11397ZM8.11396 7.33203C8.3885 6.55524 9.12936 5.9987 10.0002 5.9987C10.871 5.9987 11.6118 6.55524 11.8864 7.33203H14.6668V8.66536H11.8864C11.6118 9.44216 10.871 9.9987 10.0002 9.9987C9.12936 9.9987 8.3885 9.44216 8.11396 8.66536H1.3335V7.33203H8.11396ZM4.11397 2.66536C4.38852 1.88857 5.12935 1.33203 6.00016 1.33203C6.87096 1.33203 7.61183 1.88857 7.88636 2.66536H14.6668V3.9987H7.88636C7.61183 4.77549 6.87096 5.33203 6.00016 5.33203C5.12935 5.33203 4.38852 4.77549 4.11397 3.9987H1.3335V2.66536H4.11397ZM6.00016 3.9987C6.36835 3.9987 6.66683 3.70022 6.66683 3.33203C6.66683 2.96384 6.36835 2.66536 6.00016 2.66536C5.63198 2.66536 5.3335 2.96384 5.3335 3.33203C5.3335 3.70022 5.63198 3.9987 6.00016 3.9987ZM10.0002 8.66536C10.3684 8.66536 10.6668 8.3669 10.6668 7.9987C10.6668 7.6305 10.3684 7.33203 10.0002 7.33203C9.63196 7.33203 9.3335 7.6305 9.3335 7.9987C9.3335 8.3669 9.63196 8.66536 10.0002 8.66536ZM6.00016 13.332C6.36835 13.332 6.66683 13.0336 6.66683 12.6654C6.66683 12.2972 6.36835 11.9987 6.00016 11.9987C5.63198 11.9987 5.3335 12.2972 5.3335 12.6654C5.3335 13.0336 5.63198 13.332 6.00016 13.332Z" fill="white"/>
</svg>
