<svg width="16" height="16" viewBox="0 0 16 16" fill="none" xmlns="http://www.w3.org/2000/svg">
<path d="M11.333 11.332H14.6663V12.6654H12.6663V14.6654H11.333V11.332ZM4.66634 4.66536H1.33301V3.33203H3.33301V1.33203H4.66634V4.66536ZM12.2423 10.3557L11.2995 9.4129L12.2423 8.4701C13.5441 7.16836 13.5441 5.0578 12.2423 3.75606C10.9405 2.45431 8.83001 2.45431 7.52827 3.75606L6.58546 4.69886L5.64265 3.75606L6.58546 2.81325C8.40787 0.990805 11.3627 0.990805 13.1851 2.81325C15.0075 4.6357 15.0075 7.5905 13.1851 9.4129L12.2423 10.3557ZM10.3567 12.2414L9.41387 13.1842C7.59147 15.0066 4.63667 15.0066 2.81423 13.1842C0.991781 11.3617 0.991781 8.4069 2.81423 6.58448L3.75703 5.64168L4.69984 6.58448L3.75703 7.5273C2.45529 8.82903 2.45529 10.9396 3.75703 12.2414C5.05878 13.5431 7.16934 13.5431 8.47107 12.2414L9.41387 11.2985L10.3567 12.2414ZM9.88527 5.17027L10.8281 6.11308L6.11405 10.8271L5.17125 9.8843L9.88527 5.17027Z" fill="#0C75FF"/>
</svg>
