<svg width="20" height="20" viewBox="0 0 20 20" fill="none" xmlns="http://www.w3.org/2000/svg">
<rect width="20" height="20" rx="2" fill="#0C75FF"/>
<path d="M10.0003 3C10.9984 3 11.8087 3.81031 11.8087 4.8084C11.8087 5.8065 10.9984 6.6168 10.0003 6.6168C9.0022 6.6168 8.19189 5.8065 8.19189 4.8084C8.19189 3.81031 9.0022 3 10.0003 3Z" fill="white"/>
<path d="M9.99996 10.6883C11.0355 10.6883 11.9885 11.2117 12.5569 12.0637C12.655 11.7833 12.7126 11.4843 12.7126 11.1712V10.6509C12.7126 9.15246 11.498 7.9375 9.99996 7.9375C8.50196 7.9375 7.28735 9.15246 7.28735 10.6509V11.1712C7.28735 11.4843 7.34497 11.7833 7.44307 12.0637C8.01144 11.2117 8.96444 10.6883 9.99996 10.6883Z" fill="white"/>
<path d="M9.99996 14.2504C8.96444 14.2504 8.01144 13.727 7.44307 12.875C7.34497 13.1554 7.28735 13.4544 7.28735 13.7675V14.2878C7.28735 15.7862 8.50196 17.0012 9.99996 17.0012C11.498 17.0012 12.7126 15.7862 12.7126 14.2878V13.7675C12.7126 13.4544 12.655 13.1554 12.5569 12.875C11.9885 13.727 11.0355 14.2504 9.99996 14.2504Z" fill="white"/>
<path d="M10.0001 13.5169C10.7896 13.5169 11.5214 13.1197 11.9543 12.4686C11.5214 11.8175 10.7911 11.4219 10.0001 11.4219C9.20902 11.4219 8.4787 11.8191 8.04736 12.4686C8.48026 13.1197 9.21058 13.5169 10.0001 13.5169Z" fill="white"/>
</svg>
