<svg width="20" height="20" viewBox="0 0 20 20" fill="none" xmlns="http://www.w3.org/2000/svg">
<rect width="20" height="20" rx="2" fill="#D659FF"/>
<g clip-path="url(#clip0_6130_17108)">
<path d="M7.70294 8.99609C7.35163 8.99609 7.06592 9.27432 7.06592 9.6169C7.06592 9.95948 7.35163 10.2377 7.70294 10.2377C8.05424 10.2377 8.33996 9.95948 8.33996 9.6169C8.33996 9.27432 8.05424 8.99609 7.70294 8.99609Z" fill="white"/>
<path d="M13.8063 10.1704C13.6652 10.0325 13.4769 9.95703 13.2771 9.95703C13.0774 9.95703 12.889 10.033 12.7479 10.1704L10.5725 12.2898C10.2808 12.5738 10.2808 13.0364 10.5725 13.3209C10.7136 13.4588 10.902 13.5343 11.1017 13.5343C11.3015 13.5343 11.4898 13.4583 11.6309 13.3209L13.8063 11.2015C14.098 10.9175 14.098 10.4549 13.8063 10.1704Z" fill="white"/>
<path d="M16.4884 10.1704C16.3473 10.0325 16.159 9.95703 15.9592 9.95703C15.7595 9.95703 15.5712 10.033 15.4301 10.1704L13.2546 12.2898C12.963 12.5738 12.963 13.0364 13.2546 13.3204C13.3958 13.4583 13.5841 13.5338 13.7838 13.5338C13.9836 13.5338 14.1719 13.4578 14.313 13.3204L16.4884 11.2011C16.7801 10.9165 16.7801 10.4545 16.4884 10.1699V10.1704Z" fill="white"/>
<path d="M17.2806 8.75391C16.9059 8.75391 16.6008 9.051 16.6008 9.41584C16.6008 9.78068 16.9059 10.0778 17.2806 10.0778C17.6552 10.0778 17.9598 9.78068 17.9598 9.41584C17.9598 9.051 17.6552 8.75391 17.2806 8.75391Z" fill="white"/>
<path d="M12.5878 8.12842V8.12454L12.5525 8.09116C12.5471 8.08583 12.0005 7.571 11.2487 7.00632C10.2862 6.28342 9.4385 5.80874 8.72943 5.5968C8.06956 5.39987 7.4067 5.50729 6.95602 5.88374C6.70757 6.09229 6.31105 6.5718 6.44422 7.43842C6.44571 7.451 6.44819 7.46406 6.45018 7.47761C5.49266 7.85793 4.85515 8.47487 4.55502 9.31293C4.53912 9.35987 4.52272 9.38842 4.51477 9.40051C4.40049 9.57035 4.03974 9.97777 3.16422 10.0891C2.90285 10.122 2.6703 10.2637 2.52571 10.4781L2.52372 10.481C2.38658 10.6871 2.34384 10.9407 2.40695 11.1763L2.41341 11.1986C2.59974 11.832 2.99477 12.7378 3.81813 13.4583C4.5903 14.1337 5.54484 14.4763 6.6554 14.4763C6.99925 14.4763 7.3585 14.4429 7.72422 14.3766L7.72869 14.3757C8.09639 14.306 8.33738 13.9716 8.27726 13.6112L8.27428 13.5952C8.24098 13.4195 8.13862 13.2666 7.98707 13.165C7.83502 13.0639 7.65216 13.0262 7.47229 13.0591C6.70161 13.1989 6.02185 13.1491 5.45291 12.911C5.00074 12.7218 4.61415 12.4131 4.30658 11.996C4.19726 11.8266 4.13763 11.6752 4.13018 11.546C4.12471 11.4512 4.14608 11.3708 4.19676 11.3002C4.23353 11.2489 4.28422 11.2044 4.34831 11.1671C4.36819 11.1555 4.38906 11.1449 4.41192 11.1352L4.43179 11.127C4.43179 11.127 4.43527 11.1255 4.43676 11.125H4.44372L4.45415 11.1173C5.10658 10.8279 5.47378 10.4229 5.66658 10.1341C5.7421 10.0223 5.80421 9.89696 5.85589 9.75132C6.10831 9.04342 6.77067 8.76664 7.2472 8.62051C7.68943 8.48406 7.96123 8.04374 7.87974 7.59664L7.87577 7.57632C7.86931 7.54487 7.86136 7.50809 7.85341 7.47035L7.8226 7.331C7.81664 7.30342 7.80918 7.26858 7.80571 7.24196L7.80173 7.21487C7.79229 7.14374 7.7913 7.08132 7.79825 7.02906C7.8062 6.96713 7.82558 6.92213 7.8544 6.89793C7.89117 6.86696 7.95477 6.84664 8.03328 6.84083C8.11726 6.83454 8.21217 6.84471 8.30608 6.87035L8.32595 6.87616C9.03751 7.08954 9.88372 7.66535 10.4681 8.111C10.803 8.366 11.0902 8.60745 11.272 8.76471C11.3779 8.85616 11.4589 8.92874 11.5081 8.97325C11.5359 8.99842 11.5578 9.01825 11.5727 9.03229L11.597 9.05503C11.8703 9.31051 12.3061 9.30325 12.5684 9.03858C12.8204 8.78454 12.8268 8.38874 12.5868 8.12793L12.5878 8.12842Z" fill="white"/>
<path d="M2.87503 11.7013C3.35851 11.7013 3.75006 11.3195 3.75006 10.8487C3.75006 10.3779 3.35801 9.99609 2.87503 9.99609C2.39205 9.99609 2 10.3779 2 10.8487C2 11.3195 2.39205 11.7013 2.87503 11.7013Z" fill="white"/>
</g>
<defs>
<clipPath id="clip0_6130_17108">
<rect width="16" height="9" fill="white" transform="translate(2 5.5)"/>
</clipPath>
</defs>
</svg>
