<svg width="24" height="24" viewBox="0 0 24 24" fill="none" xmlns="http://www.w3.org/2000/svg">
<path d="M19.5 2.5C19.7761 2.5 20 2.72387 20 3C20 3.27613 19.7761 3.50001 19.5 3.5H16.5029L17.7002 4.39941C20.0084 6.13348 21.5 8.89261 21.5 12C21.5 17.2467 17.2468 21.5 12 21.5C6.75334 21.5 2.5 17.2467 2.5 12C2.5 7.07377 6.25006 3.02285 11.0508 2.54688C11.2731 2.52486 11.5 2.70907 11.5 3C11.5 3.26239 11.2772 3.52343 10.9404 3.56543C6.74592 4.08741 3.5 7.6643 3.5 12C3.5 16.6944 7.30556 20.5 12 20.5C16.6944 20.5 20.5 16.6944 20.5 12C20.5 9.07794 19.0249 6.5008 16.7812 4.97168L16 4.43848V7C16 7.27612 15.7761 7.49998 15.5 7.5C15.2239 7.5 15 7.27612 15 7V2.5H19.5Z" fill="#0C75FF" stroke="#0C75FF"/>
</svg>
