<svg width="20" height="20" viewBox="0 0 20 20" fill="none" xmlns="http://www.w3.org/2000/svg">
<path d="M18 10C18 5.58172 14.4183 2 10 2C5.58172 2 2 5.58172 2 10C2 14.4183 5.58172 18 10 18C14.4183 18 18 14.4183 18 10Z" fill="white"/>
<path d="M17.25 10C17.25 5.99594 14.0041 2.75 10 2.75C5.99594 2.75 2.75 5.99594 2.75 10C2.75 14.0041 5.99594 17.25 10 17.25C14.0041 17.25 17.25 14.0041 17.25 10Z" stroke="black" stroke-width="1.5"/>
<path d="M12.384 9.38281H7.616C7.27579 9.38281 7 9.65861 7 9.99881C7 10.339 7.27579 10.6148 7.616 10.6148H12.384C12.7242 10.6148 13 10.339 13 9.99881C13 9.65861 12.7242 9.38281 12.384 9.38281Z" fill="black"/>
</svg>
