<svg width="20" height="20" viewBox="0 0 20 20" fill="none" xmlns="http://www.w3.org/2000/svg">
<path d="M17 4H3C1.89543 4 1 4.89543 1 6V14C1 15.1046 1.89543 16 3 16H17C18.1046 16 19 15.1046 19 14V6C19 4.89543 18.1046 4 17 4Z" fill="white"/>
<path d="M17 4.75H3C2.30964 4.75 1.75 5.30964 1.75 6V14C1.75 14.6904 2.30964 15.25 3 15.25H17C17.6904 15.25 18.25 14.6904 18.25 14V6C18.25 5.30964 17.6904 4.75 17 4.75Z" stroke="#111111" stroke-width="1.5"/>
<path d="M2 8H18" stroke="#111111" stroke-width="1.5"/>
</svg>
