<svg width="20" height="20" viewBox="0 0 20 20" fill="none" xmlns="http://www.w3.org/2000/svg">
<path d="M5.90289 11.4815H2.33588C2.23413 11.4867 2.13238 11.4712 2.03681 11.4359C1.94124 11.4006 1.85386 11.3462 1.77998 11.276C1.7061 11.2059 1.64728 11.1214 1.60707 11.0278C1.56687 10.9342 1.54614 10.8334 1.54614 10.7315C1.54614 10.6296 1.56687 10.5288 1.60707 10.4351C1.64728 10.3415 1.7061 10.2571 1.77998 10.1869C1.85386 10.1168 1.94124 10.0623 2.03681 10.027C2.13238 9.99168 2.23413 9.97621 2.33588 9.98147H5.90289C6.00463 9.97621 6.10639 9.99168 6.20196 10.027C6.29753 10.0623 6.38491 10.1168 6.45879 10.1869C6.53266 10.2571 6.59149 10.3415 6.63169 10.4351C6.6719 10.5288 6.69263 10.6296 6.69263 10.7315C6.69263 10.8334 6.6719 10.9342 6.63169 11.0278C6.59149 11.1214 6.53266 11.2059 6.45879 11.276C6.38491 11.3462 6.29753 11.4006 6.20196 11.4359C6.10639 11.4712 6.00463 11.4867 5.90289 11.4815Z" fill="#111111"/>
<path d="M16.0859 9.48438H13.4289C13.2603 9.44418 13.1101 9.34824 13.0026 9.21216C12.8951 9.07607 12.8367 8.90778 12.8367 8.73438C12.8367 8.56097 12.8951 8.39262 13.0026 8.25653C13.1101 8.12044 13.2603 8.02457 13.4289 7.98438H16.0859C16.2546 8.02457 16.4048 8.12044 16.5123 8.25653C16.6198 8.39262 16.6782 8.56097 16.6782 8.73438C16.6782 8.90778 16.6198 9.07607 16.5123 9.21216C16.4048 9.34824 16.2546 9.44418 16.0859 9.48438Z" fill="#111111"/>
<path d="M11.4712 14.1424C11.397 14.2707 11.2864 14.3742 11.1534 14.4397C11.0204 14.5052 10.871 14.5298 10.7241 14.5104C10.5771 14.491 10.4392 14.4286 10.3277 14.3308C10.2162 14.2331 10.1361 14.1046 10.0977 13.9614L8.50401 8.01371L6.69557 11.1081C6.5952 11.2798 6.43074 11.4046 6.23833 11.4551C6.04592 11.5055 5.84135 11.4775 5.66962 11.3771C5.49789 11.2768 5.37305 11.1123 5.32259 10.9199C5.27213 10.7274 5.30016 10.5229 5.40053 10.3511L8.1153 5.70505C8.19004 5.57743 8.30082 5.47473 8.43377 5.40991C8.56671 5.3451 8.71587 5.32104 8.86245 5.34076C9.00903 5.36047 9.1465 5.42308 9.25759 5.52072C9.36869 5.61837 9.44842 5.74667 9.48678 5.88951L11.0607 11.7634L12.884 8.42133L12.893 8.40574C12.9904 8.23228 13.1527 8.10462 13.3442 8.05084C13.5358 7.99705 13.7408 8.02155 13.9143 8.11894C14.0877 8.21633 14.2154 8.37863 14.2692 8.57015C14.323 8.76166 14.2984 8.96669 14.2011 9.14015L11.4802 14.1268L11.4712 14.1424Z" fill="#111111"/>
<path d="M17.5869 10.5C18.5534 10.5 19.3369 9.7165 19.3369 8.75C19.3369 7.7835 18.5534 7 17.5869 7C16.6204 7 15.8369 7.7835 15.8369 8.75C15.8369 9.7165 16.6204 10.5 17.5869 10.5Z" fill="#111111"/>
</svg>
