<svg width="20" height="20" viewBox="0 0 20 20" fill="none" xmlns="http://www.w3.org/2000/svg">
<path d="M4.46509 5.66797H12.8201V11.431H4.46509C3.86835 11.431 3.29605 11.1939 2.8741 10.772C2.45214 10.35 2.21509 9.77771 2.21509 9.18097V7.91797C2.21509 7.32123 2.45214 6.74894 2.8741 6.32698C3.29605 5.90502 3.86835 5.66797 4.46509 5.66797Z" stroke="black" stroke-width="1.5"/>
<path d="M13.5702 4.27909C13.5702 3.77762 13.1636 3.37109 12.6622 3.37109C12.1607 3.37109 11.7542 3.77762 11.7542 4.27909V12.8211C11.7542 13.3226 12.1607 13.7291 12.6622 13.7291C13.1636 13.7291 13.5702 13.3226 13.5702 12.8211V4.27909Z" fill="black"/>
<path d="M2.99902 11.2773L3.86505 10.7773C4.09473 10.6447 4.36769 10.6088 4.62387 10.6774C4.88005 10.7461 5.09847 10.9137 5.23107 11.1434L7.32007 14.7616C7.45268 14.9913 7.48862 15.2643 7.41997 15.5204C7.35133 15.7766 7.18373 15.995 6.95405 16.1276C6.72436 16.2603 6.45141 16.2962 6.19523 16.2275C5.93905 16.1589 5.72063 15.9913 5.58802 15.7616L2.99902 11.2773Z" fill="black"/>
<path d="M17.5192 8.25781H15.7032C15.2017 8.25781 14.7952 8.66434 14.7952 9.16581C14.7952 9.66729 15.2017 10.0738 15.7032 10.0738H17.5192C18.0206 10.0738 18.4272 9.66729 18.4272 9.16581C18.4272 8.66434 18.0206 8.25781 17.5192 8.25781Z" fill="black"/>
<path d="M17.8961 12.6058L16.612 11.3217C16.2574 10.9671 15.6825 10.9671 15.3279 11.3217C14.9733 11.6763 14.9733 12.2513 15.3279 12.6058L16.612 13.89C16.9666 14.2445 17.5415 14.2445 17.8961 13.89C18.2507 13.5354 18.2507 12.9604 17.8961 12.6058Z" fill="black"/>
<path d="M16.6102 4.41759L15.3261 5.7017C14.9715 6.05629 14.9715 6.63121 15.3261 6.9858C15.6807 7.3404 16.2556 7.3404 16.6102 6.9858L17.8943 5.7017C18.2489 5.3471 18.2489 4.77219 17.8943 4.41759C17.5398 4.063 16.9648 4.063 16.6102 4.41759Z" fill="black"/>
</svg>
