<svg width="176" height="24" viewBox="0 0 176 24" fill="none" xmlns="http://www.w3.org/2000/svg">
<path d="M4.62469 0C6.41557 0 7.8695 1.45441 7.8695 3.24588C7.8695 5.03735 6.41557 6.49176 4.62469 6.49176C2.83381 6.49176 1.37988 5.03735 1.37988 3.24588C1.37988 1.45441 2.83381 0 4.62469 0Z" fill="white"/>
<path d="M4.6218 13.2456C6.38615 13.2456 8.00988 14.1374 8.97828 15.5891C9.14543 15.1114 9.24359 14.6018 9.24359 14.0684V13.1819C9.24359 10.6287 7.17413 8.55859 4.6218 8.55859C2.06946 8.55859 0 10.6287 0 13.1819V14.0684C0 14.6018 0.0981668 15.1114 0.265316 15.5891C1.23372 14.1374 2.85745 13.2456 4.6218 13.2456Z" fill="white"/>
<path d="M4.6218 19.3084C2.85745 19.3084 1.23372 18.4166 0.265316 16.9648C0.0981668 17.4426 0 17.9521 0 18.4856V19.372C0 21.9252 2.06946 23.9954 4.6218 23.9954C7.17413 23.9954 9.24359 21.9252 9.24359 19.372V18.4856C9.24359 17.9521 9.14543 17.4426 8.97828 16.9648C8.00988 18.4166 6.38615 19.3084 4.6218 19.3084Z" fill="white"/>
<path d="M4.62174 18.0619C5.96689 18.0619 7.21387 17.3851 7.95145 16.2757C7.21387 15.1663 5.96954 14.4922 4.62174 14.4922C3.27393 14.4922 2.0296 15.169 1.29468 16.2757C2.03226 17.3851 3.27659 18.0619 4.62174 18.0619Z" fill="white"/>
<path d="M37.1277 8.20312H34.7465V12.531H32.2571V14.6949H34.7465V22.9179H37.1277V14.6949H39.6171V12.531H37.1277V8.20312Z" fill="white"/>
<path d="M18.4128 7.76953H15.9233V22.9171H18.4128V7.76953Z" fill="white"/>
<path d="M48.5848 13.0266C47.7623 12.5505 46.8383 12.3125 45.814 12.3125C44.7897 12.3125 43.8874 12.5574 43.0649 13.0482C42.2423 13.5243 41.586 14.1666 41.095 14.9741C40.6187 15.7817 40.3806 16.6905 40.3806 17.7007C40.3806 18.7109 40.6187 19.6266 41.095 20.4489C41.586 21.2712 42.2423 21.9273 43.0649 22.4181C43.8874 22.8941 44.8035 23.1322 45.814 23.1322C46.8245 23.1322 47.7623 22.8941 48.5848 22.4181C49.4074 21.9273 50.0568 21.2712 50.5331 20.4489C51.0241 19.6266 51.2691 18.7109 51.2691 17.7007C51.2691 16.6905 51.0241 15.7817 50.5331 14.9741C50.0568 14.1518 49.4074 13.5027 48.5848 13.0266ZM48.4333 19.3236C48.1883 19.7997 47.8341 20.1745 47.3726 20.4489C46.9249 20.7086 46.4054 20.8384 45.814 20.8384C45.2227 20.8384 44.7169 20.7086 44.2554 20.4489C43.8077 20.1745 43.4545 19.7997 43.1947 19.3236C42.9497 18.8476 42.8267 18.3066 42.8267 17.7007C42.8267 17.0948 42.9497 16.5607 43.1947 16.0994C43.4545 15.6381 43.8077 15.2771 44.2554 15.0174C44.7169 14.743 45.2364 14.6063 45.814 14.6063C46.3916 14.6063 46.9249 14.743 47.3726 15.0174C47.8203 15.2771 48.1736 15.6381 48.4333 16.0994C48.6931 16.5607 48.823 17.0948 48.823 17.7007C48.823 18.3066 48.6931 18.8476 48.4333 19.3236Z" fill="white"/>
<path d="M28.9254 12.9184C28.3193 12.5141 27.6266 12.3125 26.8473 12.3125C26.068 12.3125 25.3901 12.4925 24.7692 12.8535C24.3746 13.0787 24.0361 13.363 23.7518 13.7043V12.5289H21.3706V22.9158H23.7518V16.9217C23.7518 16.4604 23.8531 16.0492 24.0548 15.6882C24.2566 15.3273 24.538 15.0459 24.8991 14.8443C25.2602 14.6427 25.6715 14.5414 26.133 14.5414C26.8257 14.5414 27.3885 14.7646 27.8214 15.2122C28.2691 15.6597 28.4925 16.2292 28.4925 16.9217V22.9158H30.8737V16.4023C30.8737 15.7246 30.7005 15.0755 30.3541 14.4548C30.0078 13.8204 29.5315 13.3079 28.9254 12.9184Z" fill="white"/>
<path d="M77.7789 12.9184C77.1728 12.5141 76.4801 12.3125 75.7008 12.3125C74.9215 12.3125 74.2436 12.4925 73.6227 12.8535C73.2281 13.0787 72.8897 13.363 72.6053 13.7043V12.5289H70.2241V22.9158H72.6053V16.9217C72.6053 16.4604 72.7066 16.0492 72.9084 15.6882C73.1101 15.3273 73.3915 15.0459 73.7526 14.8443C74.1137 14.6427 74.525 14.5414 74.9865 14.5414C75.6792 14.5414 76.242 14.7646 76.6749 15.2122C77.1226 15.6597 77.346 16.2292 77.346 16.9217V22.9158H79.7272V16.4023C79.7272 15.7246 79.554 15.0755 79.2076 14.4548C78.8613 13.8204 78.3851 13.3079 77.7789 12.9184Z" fill="white"/>
<path d="M56.0629 7.76953H53.5735V22.9171H55.2836H56.0629H63.2064V20.6449H56.0629V7.76953Z" fill="white"/>
<path d="M91.7794 22.9163L87.1853 17.5094L91.563 12.5294H88.7272L84.5277 17.413V7.33594H82.1465V22.9163H84.5277V17.8232L88.7488 22.9163H91.7794Z" fill="white"/>
<path d="M66.3629 7.76953C65.9585 7.76953 65.62 7.90625 65.3455 8.18068C65.0857 8.45511 64.9558 8.79347 64.9558 9.19773C64.9558 9.60199 65.0857 9.94035 65.3455 10.2148C65.62 10.4892 65.9585 10.6259 66.3629 10.6259C66.7673 10.6259 67.1205 10.4892 67.3803 10.2148C67.64 9.94035 67.7699 9.60199 67.7699 9.19773C67.7699 8.79347 67.64 8.45511 67.3803 8.18068C67.1205 7.90625 66.781 7.76953 66.3629 7.76953Z" fill="white"/>
<path d="M67.5535 12.5312H65.1724V22.9181H67.5535V12.5312Z" fill="white"/>
<path d="M106.32 11.7422V23.0283H105.355V11.7422H106.32ZM104.073 11.9834V22.457H103.121V18.75H101.318C100.925 19.8799 100.176 20.54 99.2109 20.54C97.7383 20.54 96.7861 19.0166 96.7861 16.6172C96.7861 14.2178 97.7383 12.6943 99.2109 12.6943C100.176 12.6943 100.925 13.3545 101.318 14.4844H103.121V11.9834H104.073ZM99.2109 13.6338C98.2842 13.6338 97.7129 14.7764 97.7129 16.6172C97.7129 18.4453 98.2842 19.6006 99.2109 19.5879C100.125 19.6006 100.722 18.4453 100.722 16.6172C100.722 14.7764 100.125 13.6338 99.2109 13.6338ZM101.534 15.3096C101.61 15.7095 101.648 16.1475 101.648 16.6172C101.648 17.0806 101.61 17.5186 101.547 17.9121H103.121V15.3096H101.534ZM117.991 13.4941V14.3066H116.315V15.8936H117.991V16.7441H116.315V18.458H115.325V11.7422H116.315V13.4941H117.991ZM116.315 18.9785V23.0283H115.325V19.8037H108.926V18.9785H116.315ZM110.666 12.4277C112.38 12.415 113.624 13.5195 113.636 15.0811C113.624 16.668 112.38 17.7598 110.666 17.7598C108.952 17.7598 107.695 16.668 107.708 15.0811C107.695 13.5195 108.952 12.415 110.666 12.4277ZM110.666 13.2783C109.523 13.2783 108.673 14.0146 108.685 15.0811C108.673 16.1602 109.523 16.9092 110.666 16.8965C111.821 16.9092 112.659 16.1602 112.659 15.0811C112.659 14.0146 111.821 13.2783 110.666 13.2783ZM124.596 12.6182V13.2148C124.583 13.9512 124.583 15.0811 124.304 16.5537L123.301 16.4775C123.574 15.1255 123.599 14.167 123.618 13.4561H118.972V12.6182H124.596ZM121.689 15.1191V17.5439C122.939 17.4932 124.234 17.4043 125.408 17.2393L125.472 17.9756C123.111 18.3818 120.381 18.4326 118.375 18.4326L118.274 17.6074C119.004 17.6011 119.829 17.5947 120.699 17.5693V15.1191H121.689ZM127.186 11.7422V15.4238H128.836V16.2744H127.186V20.2354H126.17V11.7422H127.186ZM127.554 21.9492V22.7871H120.013V19.4736H121.016V21.9492H127.554ZM138.501 11.7422V23.0537H137.511V11.7422H138.501ZM135.073 12.7959V16.8076H130.858V19.4736C132.731 19.4736 134.4 19.3911 136.419 19.0674L136.52 19.9053C134.438 20.2354 132.725 20.3115 130.782 20.3115H129.843V15.9951H134.07V13.6211H129.817V12.7959H135.073ZM143.849 15.208C143.836 17.0234 145.144 19.0166 146.782 19.791L146.211 20.5781C144.941 19.9624 143.868 18.6167 143.367 17.0869C142.846 18.75 141.71 20.21 140.447 20.8574L139.837 20.0703C141.462 19.2832 142.859 17.1377 142.872 15.208V13.7354H140.244V12.9102H146.388V13.7354H143.849V15.208ZM148.762 11.7422V16.3125H150.654V17.1631H148.762V23.0283H147.772V11.7422H148.762ZM163.331 11.7422V20.21H162.379V11.7422H163.331ZM161.109 11.9707V19.8926H160.144V15.4365H158.367V14.6113H160.144V11.9707H161.109ZM163.674 21.9492V22.7871H155.93V19.1689H156.92V21.9492H163.674ZM157.085 14.2305C157.085 15.5508 157.91 16.9092 159.345 17.5186L158.786 18.3057C157.745 17.8232 157.002 16.96 156.628 15.9316C156.215 17.0615 155.428 18.0645 154.343 18.585L153.784 17.8105C155.231 17.125 156.12 15.5635 156.12 14.2305V12.542H157.085V14.2305ZM173.948 11.7422V23.0537H172.958V16.833H170.571V16.0078H172.958V11.7422H173.948ZM170.38 12.7832V13.6084H166.115V15.957H169.885V16.7695H166.115V19.499C168.19 19.499 169.511 19.4292 171.066 19.1562L171.18 19.9814C169.542 20.248 168.159 20.3242 165.975 20.3242H165.112V12.7832H170.38Z" fill="white"/>
</svg>
